<svg width="145" height="72" viewBox="0 0 145 72" fill="none" xmlns="http://www.w3.org/2000/svg">
<g filter="url(#filter0_d)">
<path d="M116 51.5H22C18.4159 51.5 15.5 48.5841 15.5 45V17C15.5 13.4159 18.4159 10.5 22 10.5H116C119.584 10.5 122.5 13.4159 122.5 17V17.0035L122.5 17.007L122.659 28.3281L122.663 28.6106L122.907 28.7529L128.141 31.8061L122.894 35.0898L122.664 35.2338L122.66 35.5053L122.5 44.9916L122.5 44.9958V45C122.5 48.5841 119.584 51.5 116 51.5Z" fill="white"/>
<path d="M22 11C18.6916 11 16 13.6916 16 17V45C16 48.3084 18.6916 51 22 51H116C119.308 51 122 48.3084 122 45V44.9916L122 44.9832L122.16 35.4969L122.169 34.954L122.629 34.666L127.175 31.8211L122.656 29.1848L122.167 28.9001L122.16 28.3351L122 17.0141L122 17.007V17C122 13.6916 119.308 11 116 11H22ZM22 10H116C119.866 10 123 13.134 123 17L123.159 28.3211L129.108 31.791L123.159 35.5137L123 45C123 48.866 119.866 52 116 52H22C18.134 52 15 48.866 15 45V17C15 13.134 18.134 10 22 10Z" fill="#DDDDDD"/>
</g>
<path d="M42.8047 36H41.4854L36.4746 28.3301V36H35.1553V26.0469H36.4746L41.499 33.751V26.0469H42.8047V36ZM48.0068 36.1367C47.0042 36.1367 46.1885 35.8086 45.5596 35.1523C44.9307 34.4915 44.6162 33.6097 44.6162 32.5068V32.2744C44.6162 31.5407 44.7552 30.8867 45.0332 30.3125C45.3158 29.7337 45.7077 29.2826 46.209 28.959C46.7148 28.6309 47.2617 28.4668 47.8496 28.4668C48.8112 28.4668 49.5586 28.7835 50.0918 29.417C50.625 30.0505 50.8916 30.9574 50.8916 32.1377V32.6641H45.8809C45.8991 33.3932 46.111 33.9834 46.5166 34.4346C46.9268 34.8812 47.4463 35.1045 48.0752 35.1045C48.5218 35.1045 48.9001 35.0133 49.21 34.8311C49.5199 34.6488 49.791 34.4072 50.0234 34.1064L50.7959 34.708C50.1761 35.6605 49.2464 36.1367 48.0068 36.1367ZM47.8496 29.5059C47.3392 29.5059 46.9108 29.6927 46.5645 30.0664C46.2181 30.4355 46.0039 30.9551 45.9219 31.625H49.627V31.5293C49.5905 30.8867 49.4173 30.39 49.1074 30.0391C48.7975 29.6836 48.3783 29.5059 47.8496 29.5059ZM55.4307 36.1367C54.4281 36.1367 53.6123 35.8086 52.9834 35.1523C52.3545 34.4915 52.04 33.6097 52.04 32.5068V32.2744C52.04 31.5407 52.179 30.8867 52.457 30.3125C52.7396 29.7337 53.1315 29.2826 53.6328 28.959C54.1387 28.6309 54.6855 28.4668 55.2734 28.4668C56.235 28.4668 56.9824 28.7835 57.5156 29.417C58.0488 30.0505 58.3154 30.9574 58.3154 32.1377V32.6641H53.3047C53.3229 33.3932 53.5348 33.9834 53.9404 34.4346C54.3506 34.8812 54.8701 35.1045 55.499 35.1045C55.9456 35.1045 56.3239 35.0133 56.6338 34.8311C56.9437 34.6488 57.2148 34.4072 57.4473 34.1064L58.2197 34.708C57.5999 35.6605 56.6702 36.1367 55.4307 36.1367ZM55.2734 29.5059C54.763 29.5059 54.3346 29.6927 53.9883 30.0664C53.6419 30.4355 53.4277 30.9551 53.3457 31.625H57.0508V31.5293C57.0143 30.8867 56.8411 30.39 56.5312 30.0391C56.2214 29.6836 55.8021 29.5059 55.2734 29.5059ZM59.4775 32.2402C59.4775 31.1055 59.7464 30.194 60.2842 29.5059C60.8219 28.8132 61.526 28.4668 62.3965 28.4668C63.2624 28.4668 63.9482 28.763 64.4541 29.3555V25.5H65.7188V36H64.5566L64.4951 35.207C63.9893 35.8268 63.2852 36.1367 62.3828 36.1367C61.526 36.1367 60.8265 35.7858 60.2842 35.084C59.7464 34.3822 59.4775 33.4661 59.4775 32.3359V32.2402ZM60.7422 32.3838C60.7422 33.2223 60.9154 33.8786 61.2617 34.3525C61.6081 34.8265 62.0866 35.0635 62.6973 35.0635C63.4993 35.0635 64.085 34.7035 64.4541 33.9834V30.5859C64.0758 29.8887 63.4948 29.54 62.7109 29.54C62.0911 29.54 61.6081 29.7793 61.2617 30.2578C60.9154 30.7363 60.7422 31.445 60.7422 32.3838ZM72.4248 29.499C72.9854 28.8109 73.7145 28.4668 74.6123 28.4668C76.1755 28.4668 76.9639 29.3486 76.9775 31.1123V36H75.7129V31.1055C75.7083 30.5723 75.5853 30.1781 75.3438 29.9229C75.1068 29.6676 74.7354 29.54 74.2295 29.54C73.8193 29.54 73.4593 29.6494 73.1494 29.8682C72.8395 30.0869 72.598 30.374 72.4248 30.7295V36H71.1602V25.5H72.4248V29.499ZM81.9404 36.1367C80.9378 36.1367 80.1221 35.8086 79.4932 35.1523C78.8643 34.4915 78.5498 33.6097 78.5498 32.5068V32.2744C78.5498 31.5407 78.6888 30.8867 78.9668 30.3125C79.2493 29.7337 79.6413 29.2826 80.1426 28.959C80.6484 28.6309 81.1953 28.4668 81.7832 28.4668C82.7448 28.4668 83.4922 28.7835 84.0254 29.417C84.5586 30.0505 84.8252 30.9574 84.8252 32.1377V32.6641H79.8145C79.8327 33.3932 80.0446 33.9834 80.4502 34.4346C80.8604 34.8812 81.3799 35.1045 82.0088 35.1045C82.4554 35.1045 82.8337 35.0133 83.1436 34.8311C83.4535 34.6488 83.7246 34.4072 83.957 34.1064L84.7295 34.708C84.1097 35.6605 83.18 36.1367 81.9404 36.1367ZM81.7832 29.5059C81.2728 29.5059 80.8444 29.6927 80.498 30.0664C80.1517 30.4355 79.9375 30.9551 79.8555 31.625H83.5605V31.5293C83.5241 30.8867 83.3509 30.39 83.041 30.0391C82.7311 29.6836 82.3118 29.5059 81.7832 29.5059ZM87.6689 36H86.4043V25.5H87.6689V36ZM95.9473 32.3838C95.9473 33.5094 95.6898 34.4163 95.1748 35.1045C94.6598 35.7926 93.9626 36.1367 93.083 36.1367C92.1852 36.1367 91.4788 35.8519 90.9639 35.2822V38.8438H89.6992V28.6035H90.8545L90.916 29.4238C91.431 28.7858 92.1465 28.4668 93.0625 28.4668C93.9512 28.4668 94.653 28.8018 95.168 29.4717C95.6875 30.1416 95.9473 31.0736 95.9473 32.2676V32.3838ZM94.6826 32.2402C94.6826 31.4062 94.5049 30.7477 94.1494 30.2646C93.7939 29.7816 93.3063 29.54 92.6865 29.54C91.9209 29.54 91.3467 29.8796 90.9639 30.5586V34.0928C91.3421 34.7673 91.9209 35.1045 92.7002 35.1045C93.3063 35.1045 93.7871 34.8652 94.1426 34.3867C94.5026 33.9036 94.6826 33.1882 94.6826 32.2402ZM99.0439 33.1973C99.0531 32.6549 99.1146 32.2266 99.2285 31.9121C99.3424 31.5977 99.5749 31.249 99.9258 30.8662L100.821 29.9434C101.204 29.5104 101.396 29.0456 101.396 28.5488C101.396 28.0703 101.27 27.6966 101.02 27.4277C100.769 27.1543 100.404 27.0176 99.9258 27.0176C99.4609 27.0176 99.0872 27.1406 98.8047 27.3867C98.5221 27.6328 98.3809 27.9632 98.3809 28.3779H97.1162C97.1253 27.6396 97.3874 27.0449 97.9023 26.5938C98.4219 26.138 99.0964 25.9102 99.9258 25.9102C100.787 25.9102 101.457 26.1426 101.936 26.6074C102.419 27.0677 102.66 27.7012 102.66 28.5078C102.66 29.3053 102.291 30.0915 101.553 30.8662L100.808 31.6045C100.475 31.9736 100.309 32.5046 100.309 33.1973H99.0439ZM98.9893 35.3643C98.9893 35.1592 99.0508 34.9883 99.1738 34.8516C99.3014 34.7103 99.4883 34.6396 99.7344 34.6396C99.9805 34.6396 100.167 34.7103 100.295 34.8516C100.423 34.9883 100.486 35.1592 100.486 35.3643C100.486 35.5693 100.423 35.7402 100.295 35.877C100.167 36.0091 99.9805 36.0752 99.7344 36.0752C99.4883 36.0752 99.3014 36.0091 99.1738 35.877C99.0508 35.7402 98.9893 35.5693 98.9893 35.3643Z" fill="#212529"/>
<defs>
<filter id="filter0_d" x="0" y="0" width="144.108" height="72" filterUnits="userSpaceOnUse" color-interpolation-filters="sRGB">
<feFlood flood-opacity="0" result="BackgroundImageFix"/>
<feColorMatrix in="SourceAlpha" type="matrix" values="0 0 0 0 0 0 0 0 0 0 0 0 0 0 0 0 0 0 127 0"/>
<feOffset dy="5"/>
<feGaussianBlur stdDeviation="7.5"/>
<feColorMatrix type="matrix" values="0 0 0 0 0 0 0 0 0 0 0 0 0 0 0 0 0 0 0.102 0"/>
<feBlend mode="normal" in2="BackgroundImageFix" result="effect1_dropShadow"/>
<feBlend mode="normal" in="SourceGraphic" in2="effect1_dropShadow" result="shape"/>
</filter>
</defs>
</svg>
