<svg width="795" height="28" viewBox="0 0 795 28" fill="none" xmlns="http://www.w3.org/2000/svg">
<path d="M46.9 7.035C46.897 7.39203 46.7883 7.74019 46.5877 8.03552C46.387 8.33084 46.1034 8.56011 45.7725 8.69437C45.4417 8.82863 45.0785 8.86187 44.7288 8.78989C44.3791 8.71791 44.0585 8.54394 43.8076 8.28994C43.5566 8.03595 43.3866 7.7133 43.3188 7.36273C43.2511 7.01217 43.2888 6.6494 43.427 6.32021C43.5653 5.99102 43.798 5.71018 44.0957 5.51312C44.3935 5.31606 44.7429 5.21163 45.1 5.213C45.3378 5.21444 45.573 5.26271 45.7922 5.35505C46.0114 5.4474 46.2102 5.58201 46.3773 5.7512C46.5445 5.92039 46.6767 6.12084 46.7663 6.34112C46.856 6.56139 46.9014 6.79717 46.9 7.035ZM39.449 10.707V11.155C39.1079 10.7826 38.6894 10.4894 38.223 10.2957C37.7566 10.1021 37.2535 10.0127 36.749 10.034C36.0254 10.0268 35.3078 10.1667 34.6399 10.4451C33.9719 10.7234 33.3674 11.1346 32.8631 11.6535C32.3587 12.1724 31.965 12.7884 31.7058 13.464C31.4465 14.1397 31.3272 14.8609 31.355 15.584C31.3272 16.3071 31.4465 17.0283 31.7058 17.704C31.965 18.3796 32.3587 18.9956 32.8631 19.5145C33.3674 20.0334 33.9719 20.4446 34.6399 20.7229C35.3078 21.0013 36.0254 21.1412 36.749 21.134C37.2565 21.1586 37.7631 21.068 38.2307 20.869C38.6983 20.67 39.1148 20.3678 39.449 19.985V20.462C39.4476 20.5136 39.4567 20.5649 39.4758 20.6129C39.4948 20.6609 39.5233 20.7045 39.5597 20.7411C39.5961 20.7778 39.6395 20.8067 39.6873 20.8261C39.7351 20.8455 39.7864 20.855 39.838 20.854H42.09V10.314H39.843C39.7398 10.3166 39.6417 10.3589 39.569 10.4321C39.4963 10.5054 39.4548 10.6038 39.453 10.707H39.449ZM39.449 17.462C39.1928 17.8188 38.855 18.1093 38.4638 18.3092C38.0726 18.509 37.6393 18.6125 37.2 18.611C36.7892 18.6423 36.3764 18.5864 35.9887 18.447C35.601 18.3075 35.2472 18.0876 34.9505 17.8018C34.6538 17.5159 34.4209 17.1706 34.267 16.7883C34.1132 16.4061 34.042 15.9957 34.058 15.584C34.042 15.1723 34.1132 14.7619 34.267 14.3797C34.4209 13.9974 34.6538 13.6521 34.9505 13.3662C35.2472 13.0804 35.601 12.8605 35.9887 12.721C36.3764 12.5816 36.7892 12.5257 37.2 12.557C37.6387 12.5611 38.0705 12.667 38.4613 12.8664C38.8521 13.0658 39.1912 13.3532 39.452 13.706L39.449 17.462ZM43.759 10.315H46.428V20.853H43.763L43.759 10.315ZM83.63 10.035C83.1254 10.0137 82.6223 10.103 82.1559 10.2966C81.6895 10.4903 81.2711 10.7836 80.93 11.156V5.241H78.268V20.853H80.52C80.6228 20.8502 80.7206 20.8079 80.793 20.7349C80.8654 20.6619 80.907 20.5638 80.909 20.461V19.984C81.2462 20.3631 81.6632 20.6627 82.1301 20.8614C82.5969 21.0601 83.102 21.1528 83.609 21.133C84.3316 21.1375 85.0477 20.9958 85.7142 20.7165C86.3807 20.4372 86.9839 20.0261 87.4874 19.5078C87.991 18.9894 88.3846 18.3747 88.6445 17.7004C88.9044 17.0261 89.0253 16.3062 89 15.584C89.0262 14.8636 88.9068 14.1453 88.6487 13.4722C88.3907 12.7991 87.9994 12.185 87.4984 11.6668C86.9973 11.1485 86.3968 10.7368 85.7327 10.4562C85.0687 10.1756 84.3549 10.032 83.634 10.034L83.63 10.035ZM83.185 18.584C82.7446 18.5894 82.3095 18.4877 81.9171 18.2875C81.5248 18.0873 81.187 17.7948 80.933 17.435V13.678C81.2025 13.3346 81.5436 13.0539 81.9324 12.8555C82.3213 12.6571 82.7487 12.5457 83.185 12.529C83.5958 12.4977 84.0086 12.5536 84.3963 12.693C84.784 12.8325 85.1378 13.0524 85.4345 13.3382C85.7312 13.6241 85.9641 13.9694 86.1179 14.3517C86.2717 14.7339 86.343 15.1443 86.327 15.556C86.343 15.9677 86.2717 16.3781 86.1179 16.7603C85.9641 17.1426 85.7312 17.4879 85.4345 17.7738C85.1378 18.0596 84.784 18.2795 84.3963 18.419C84.0086 18.5584 83.5958 18.6143 83.185 18.583V18.584ZM76.878 14.6V20.878H74.208V14.908C74.208 13.17 73.652 12.47 72.151 12.47C71.7372 12.4824 71.3306 12.5811 70.9571 12.7596C70.5836 12.9382 70.2515 13.1928 69.982 13.507V20.85H67.313V10.314H69.426C69.5288 10.3168 69.6265 10.3591 69.699 10.4321C69.7714 10.5051 69.813 10.6032 69.815 10.706V11.154C70.1852 10.7821 70.6281 10.4906 71.1161 10.2977C71.604 10.1048 72.1266 10.0147 72.651 10.033C73.7153 9.99691 74.7552 10.3564 75.57 11.042C76.515 11.827 76.877 12.836 76.877 14.602L76.878 14.6ZM60.835 10.034C60.3304 10.0127 59.8273 10.102 59.3609 10.2956C58.8945 10.4893 58.4761 10.7826 58.135 11.155V5.241H55.468V20.853H57.72C57.8228 20.8502 57.9205 20.8079 57.993 20.7349C58.0654 20.6619 58.107 20.5638 58.109 20.461V19.984C58.4462 20.3631 58.8632 20.6628 59.33 20.8615C59.7969 21.0602 60.302 21.1529 60.809 21.133C61.532 21.1379 62.2485 20.9965 62.9154 20.7173C63.5823 20.4382 64.1859 20.027 64.6898 19.5085C65.1937 18.99 65.5875 18.375 65.8475 17.7004C66.1076 17.0258 66.2285 16.3055 66.203 15.583C66.2339 14.8614 66.1177 14.1411 65.8614 13.4659C65.6051 12.7907 65.214 12.1747 64.712 11.6555C64.21 11.1363 63.6075 10.7247 62.9414 10.4457C62.2752 10.1668 61.5592 10.0264 60.837 10.033L60.835 10.034ZM60.39 18.583C59.9496 18.5883 59.5145 18.4866 59.1222 18.2864C58.7299 18.0862 58.3921 17.7937 58.138 17.434V13.678C58.4076 13.3346 58.7486 13.054 59.1375 12.8556C59.5264 12.6572 59.9537 12.5458 60.39 12.529C60.8008 12.4977 61.2136 12.5536 61.6013 12.693C61.989 12.8325 62.3428 13.0524 62.6395 13.3382C62.9362 13.6241 63.1691 13.9694 63.3229 14.3517C63.4767 14.7339 63.548 15.1443 63.532 15.556C63.548 15.9677 63.4767 16.3781 63.3229 16.7603C63.1691 17.1426 62.9362 17.4879 62.6395 17.7738C62.3428 18.0596 61.989 18.2795 61.6013 18.419C61.2136 18.5584 60.8008 18.6143 60.39 18.583ZM53.161 10.034C53.5733 10.0207 53.9853 10.0678 54.384 10.174V12.669C53.7625 12.4615 53.0958 12.4303 52.4577 12.5788C51.8196 12.7272 51.235 13.0496 50.769 13.51V20.881H48.1V10.314H50.352C50.4548 10.3168 50.5525 10.3591 50.625 10.4321C50.6974 10.5051 50.739 10.6032 50.741 10.706V11.154C51.3765 10.4878 52.2409 10.0872 53.16 10.033L53.161 10.034ZM25.44 19.9C25.301 19.564 25.162 19.2 25.023 18.891C24.801 18.391 24.578 17.91 24.384 17.462L24.356 17.434C22.437 13.234 20.383 8.97 18.214 4.765L18.131 4.6C17.909 4.18 17.686 3.731 17.464 3.283C17.1905 2.73257 16.855 2.21521 16.464 1.741C16.0467 1.20071 15.5115 0.762958 14.8992 0.461211C14.2868 0.159465 13.6136 0.00170819 12.931 0C12.2509 0.00315393 11.5797 0.155398 10.9648 0.446007C10.3499 0.736615 9.80619 1.15852 9.37198 1.682C8.99045 2.16309 8.65561 2.67942 8.37198 3.224C8.14998 3.672 7.92698 4.124 7.70498 4.541L7.62198 4.709C5.48098 8.909 3.39598 13.173 1.47698 17.378L1.44898 17.434C1.25398 17.883 1.03198 18.359 0.80998 18.864C0.66998 19.1713 0.530647 19.5073 0.39198 19.872C0.0363242 20.8392 -0.0783152 21.8785 0.0579804 22.9C0.204615 23.9227 0.615075 24.8896 1.24895 25.7055C1.88282 26.5214 2.71825 27.1581 3.67298 27.553C4.38531 27.854 5.15169 28.0061 5.92498 28C6.16686 27.9953 6.40826 27.9766 6.64798 27.944C7.62962 27.8179 8.57542 27.4937 9.42798 26.991C10.7264 26.2107 11.8906 25.2265 12.876 24.076C13.8677 25.2201 15.0308 26.2035 16.324 26.991C17.1765 27.4937 18.1223 27.8179 19.104 27.944C19.3437 27.9766 19.5851 27.9953 19.827 28C20.5997 28.0088 21.3657 27.8562 22.076 27.552C23.0311 27.1581 23.8668 26.5217 24.5006 25.7058C25.1345 24.89 25.5444 23.9228 25.69 22.9C25.8963 21.8967 25.8095 20.8553 25.44 19.9ZM12.9 21.357C11.6023 19.8411 10.6472 18.063 10.1 16.144C9.96451 15.5844 9.93634 15.0041 10.017 14.434C10.0717 14.0124 10.2241 13.6094 10.462 13.257C10.7385 12.8698 11.1047 12.5553 11.5293 12.3406C11.9539 12.1258 12.4242 12.0172 12.9 12.024C13.3787 12.0064 13.8542 12.1103 14.282 12.3259C14.7099 12.5415 15.0762 12.8618 15.347 13.257C15.5849 13.6094 15.7372 14.0124 15.792 14.434C15.8731 15.0041 15.845 15.5844 15.709 16.144C15.147 18.0588 14.1901 19.8346 12.9 21.357ZM23.991 22.674C23.8444 23.7598 23.2741 24.7434 22.4048 25.4102C21.5355 26.077 20.4376 26.3728 19.351 26.233C18.6038 26.139 17.8842 25.8907 17.238 25.504C16.0418 24.7743 14.9713 23.8561 14.068 22.785C15.6401 20.999 16.7898 18.882 17.432 16.591C17.6127 15.8106 17.6597 15.0051 17.571 14.209C17.4682 13.525 17.2114 12.8733 16.82 12.303C16.38 11.6752 15.7922 11.1653 15.1086 10.8182C14.425 10.4712 13.6665 10.2977 12.9 10.313C12.1345 10.3039 11.3782 10.4801 10.6956 10.8266C10.013 11.1732 9.42439 11.6797 8.97998 12.303C8.5886 12.8733 8.33182 13.525 8.22898 14.209C8.11161 15.0041 8.15892 15.8149 8.36798 16.591C9.02056 18.8862 10.1689 21.0101 11.732 22.813C10.8351 23.8905 9.76347 24.8096 8.56198 25.532C7.91573 25.9187 7.19619 26.1669 6.44898 26.261C5.73235 26.3416 5.00689 26.2455 4.33598 25.981C3.66511 25.7023 3.07893 25.2527 2.63576 24.6771C2.19259 24.1015 1.90789 23.4198 1.80998 22.7C1.71821 21.9618 1.80392 21.2124 2.05998 20.514C2.14298 20.234 2.28198 19.953 2.42098 19.614C2.61598 19.166 2.83798 18.689 3.05998 18.214L3.08798 18.158C5.00698 13.986 7.06498 9.726 9.20498 5.578L9.28798 5.41C9.50998 4.99 9.73298 4.541 9.95498 4.121C10.1646 3.68068 10.4258 3.26679 10.733 2.888C11.0052 2.56257 11.3454 2.30083 11.7298 2.12122C12.1141 1.94162 12.5332 1.84854 12.9575 1.84854C13.3817 1.84854 13.8008 1.94162 14.1852 2.12122C14.5695 2.30083 14.9098 2.56257 15.182 2.888C15.4892 3.26677 15.7503 3.68067 15.96 4.121C16.182 4.541 16.405 4.99 16.627 5.41L16.71 5.578C18.823 9.754 20.881 14.014 22.796 18.191V18.219C23.018 18.667 23.213 19.172 23.435 19.619C23.574 19.955 23.713 20.236 23.796 20.519C24.0256 21.2139 24.0923 21.9522 23.991 22.677V22.674Z" fill="#C0C7D1"/>
<path d="M326.362 9.641C324.428 9.11301 322.388 9.11301 320.454 9.641C319.079 9.93259 317.821 10.6235 316.837 11.6272C315.854 12.6309 315.188 13.9026 314.924 15.283C314.594 16.9366 314.487 18.6269 314.604 20.309C314.636 22.0586 315.265 23.7448 316.387 25.0876C317.509 26.4304 319.057 27.349 320.773 27.691H320.928C321.064 27.691 321.209 27.791 321.345 27.791H321.49C321.664 27.791 321.878 27.891 322.1 27.891C322.887 28.0035 323.686 28.0035 324.473 27.891H324.589C326.35 27.8461 328.043 27.2043 329.391 26.0709C330.739 24.9375 331.662 23.3797 332.008 21.653C332.463 19.6677 332.463 17.6053 332.008 15.62C331.757 14.1661 331.082 12.8187 330.068 11.7471C329.054 10.6755 327.746 9.92752 326.308 9.597L326.362 9.641ZM326.6 20.67C326.613 20.7958 326.577 20.9219 326.5 21.022C326.384 21.7702 325.989 22.4467 325.394 22.9149C324.799 23.3832 324.048 23.6083 323.294 23.545C322.508 23.5642 321.745 23.2772 321.167 22.7444C320.588 22.2117 320.239 21.4751 320.194 20.69C320.068 19.4058 320.068 18.1122 320.194 16.828C320.185 16.4023 320.266 15.9796 320.431 15.5872C320.597 15.1948 320.842 14.8415 321.153 14.5502C321.463 14.2589 321.832 14.036 322.234 13.8961C322.636 13.7562 323.063 13.7023 323.487 13.738C324.196 13.7171 324.89 13.9483 325.445 14.3904C326 14.8325 326.38 15.457 326.518 16.153C326.735 17.649 326.768 19.1659 326.618 20.67H326.6ZM334.139 0.714V27.622H339.795V19.389L345.005 27.631H351L345.344 18.675L351 9.758H345.005L339.795 17.981V0.02L334.139 0.714ZM273.928 19.262C273.959 18.0142 273.898 16.7657 273.744 15.527C273.62 14.0068 272.976 12.5755 271.922 11.4736C270.867 10.3716 269.465 9.66593 267.952 9.475C266.675 9.28993 265.381 9.25636 264.097 9.375C260.61 9.707 257.966 11.898 257.424 15.202C257.093 17.2299 257.058 19.2949 257.318 21.333C257.718 24.354 259.178 26.281 261.695 27.209C262.848 27.561 268.484 29.047 273.443 26.525L273.243 25.792C273.011 24.805 272.743 23.837 272.478 22.859V22.759C272.375 22.7703 272.275 22.8045 272.187 22.859C271.975 22.9391 271.758 23.0059 271.538 23.059H271.422C270.45 23.3389 269.46 23.5481 268.458 23.685C267.498 23.7828 266.532 23.7828 265.572 23.685C265.184 23.6697 264.803 23.5752 264.453 23.4073C264.102 23.2393 263.79 23.0015 263.535 22.7084C263.28 22.4154 263.088 22.0732 262.97 21.7031C262.852 21.3329 262.811 20.9425 262.85 20.556H273.937V20.356L273.928 19.262ZM268.843 16.808H262.732C262.652 16.2321 262.726 15.6452 262.947 15.1075C263.168 14.5698 263.529 14.1006 263.991 13.748C264.518 13.3918 265.136 13.1926 265.772 13.1735C266.408 13.1544 267.036 13.3161 267.584 13.64C268.784 14.305 268.872 15.508 268.843 16.808ZM256.524 26.321C256.282 25.421 256.001 24.521 255.73 23.661L255.478 22.703C255.478 22.703 248.863 25.91 247.837 19.819C247.725 18.8091 247.758 17.7883 247.937 16.788C247.989 15.9736 248.346 15.2087 248.936 14.6453C249.526 14.0818 250.307 13.7612 251.123 13.747C251.738 13.6824 252.359 13.7162 252.963 13.847C253.786 13.984 254.58 14.238 255.481 14.463C255.791 13.505 256.111 12.547 256.411 11.588C256.48 11.4685 256.519 11.3346 256.527 11.197L256.672 10.62C256.672 10.52 256.546 10.464 256.42 10.385C256.168 10.2148 255.892 10.0849 255.6 10C255.447 9.9231 255.284 9.86726 255.116 9.834C255.046 9.77915 254.962 9.74457 254.874 9.734C253.138 9.27445 251.329 9.15492 249.547 9.382C247.8 9.47028 246.137 10.1586 244.838 11.3307C243.54 12.5028 242.685 14.087 242.419 15.816C242.036 17.7858 242.07 19.8142 242.519 21.77C242.759 23.1383 243.39 24.408 244.335 25.4262C245.28 26.4444 246.499 27.1677 247.846 27.509C249.718 28.0351 251.684 28.1346 253.6 27.8C254.558 27.5948 255.498 27.3101 256.409 26.949L256.729 26.832L256.574 26.324L256.524 26.321ZM235.139 11.85C235.074 11.7851 235.013 11.7166 234.955 11.645L234.819 11.508C234.125 10.5951 233.164 9.92169 232.069 9.582C231.181 9.2993 230.244 9.19956 229.316 9.2888C228.388 9.37805 227.488 9.65442 226.67 10.1012C225.851 10.5481 225.132 11.1561 224.555 11.8886C223.979 12.621 223.556 13.4628 223.314 14.363C222.635 16.732 222.527 19.2283 223 21.647C223.92 26.898 227.784 28.658 231.91 27.787C233.167 27.4622 234.262 26.6904 234.99 25.616C235.064 25.5323 235.123 25.4361 235.164 25.332V27.64H240.442V9.562H235.169V11.85H235.139ZM234.674 20.933C234.609 21.6901 234.245 22.3903 233.664 22.8799C233.083 23.3694 232.331 23.6083 231.574 23.544C230.851 23.5572 230.146 23.3111 229.589 22.8502C229.031 22.3893 228.656 21.744 228.533 21.031C228.308 19.3352 228.348 17.6148 228.649 15.931C228.805 15.2494 229.205 14.6488 229.775 14.2432C230.344 13.8376 231.043 13.6553 231.738 13.731C232.469 13.6938 233.185 13.944 233.734 14.4283C234.282 14.9125 234.619 15.5923 234.673 16.322C234.828 17.8564 234.828 19.4026 234.673 20.937L234.674 20.933ZM222.239 9.553H218.2V6.844C218.491 4.282 222.684 4.771 222.684 4.771V0.391C222.54 0.391 214.356 -1.6 212.729 4.683C212.53 6.28818 212.453 7.90619 212.5 9.523H209V14.343H212.709V27.443H218.109V14.343H222.244L222.709 9.523H222.244L222.239 9.553ZM307.088 9.641C305.154 9.11296 303.114 9.11296 301.18 9.641C299.805 9.93399 298.546 10.6252 297.561 11.6284C296.576 12.6317 295.908 13.9027 295.64 15.283C295.31 16.9367 295.203 18.6269 295.32 20.309C295.354 22.0596 295.985 23.746 297.109 25.0885C298.233 26.431 299.783 27.3489 301.5 27.69H301.655C301.791 27.69 301.936 27.79 302.071 27.79H302.216C302.39 27.79 302.603 27.89 302.826 27.89C303.613 28.0025 304.412 28.0025 305.199 27.89H305.315C307.076 27.8451 308.769 27.2033 310.117 26.0699C311.465 24.9365 312.388 23.3787 312.734 21.652C313.189 19.6667 313.189 17.6043 312.734 15.619C312.48 14.1664 311.804 12.8208 310.79 11.7497C309.777 10.6787 308.47 9.92965 307.034 9.596L307.088 9.641ZM307.32 20.67C307.333 20.7958 307.297 20.9219 307.22 21.022C307.104 21.7702 306.709 22.4467 306.114 22.9149C305.519 23.3832 304.768 23.6083 304.014 23.545C303.228 23.5642 302.465 23.2772 301.887 22.7444C301.308 22.2117 300.959 21.4751 300.914 20.69C300.793 19.4055 300.793 18.1125 300.914 16.828C300.905 16.4023 300.986 15.9796 301.151 15.5872C301.317 15.1948 301.562 14.8415 301.873 14.5502C302.183 14.2589 302.552 14.036 302.954 13.8961C303.356 13.7562 303.783 13.7023 304.207 13.738C304.916 13.7171 305.61 13.9483 306.165 14.3904C306.72 14.8325 307.1 15.457 307.238 16.153C307.464 17.6482 307.498 19.1663 307.338 20.67H307.32ZM287.051 9.308C286.005 9.16292 284.939 9.3014 283.964 9.70896C282.99 10.1165 282.142 10.7782 281.511 11.625V0L275.855 0.694V27.594H281.511V26C282.229 26.6133 283.028 27.1263 283.884 27.525C287.177 28.718 291.516 27.75 293.036 23.301C293.962 20.498 294.037 17.4832 293.249 14.638C292.963 13.1829 292.197 11.8662 291.072 10.8996C289.947 9.93302 288.531 9.37279 287.049 9.309L287.051 9.308ZM287.9 20.963C287.803 21.4309 287.603 21.8715 287.315 22.253C287.028 22.6344 286.659 22.9472 286.235 23.1689C285.812 23.3905 285.345 23.5155 284.867 23.5347C284.39 23.5539 283.914 23.4669 283.474 23.28C282.963 22.9729 282.529 22.552 282.206 22.0501C281.884 21.5482 281.682 20.9788 281.615 20.386C281.515 19.125 281.421 16.486 282.031 15.243C282.285 14.7738 282.663 14.3839 283.125 14.1163C283.586 13.8488 284.113 13.714 284.646 13.727C285.027 13.6719 285.416 13.6947 285.788 13.7939C286.16 13.8931 286.508 14.0668 286.812 14.3044C287.115 14.542 287.367 14.8386 287.552 15.1762C287.737 15.5139 287.852 15.8856 287.89 16.269C288.108 17.8257 288.108 19.4053 287.89 20.962L287.9 20.963Z" fill="#C0C7D1"/>
<path d="M471 4.1283H475.333V19.8093H483.357V23.7813H471V4.1283Z" fill="#C0C7D1"/>
<path d="M487.353 3.83619C487.827 3.83915 488.29 3.98242 488.682 4.24793C489.075 4.51344 489.38 4.8893 489.56 5.32809C489.739 5.76689 489.784 6.24897 489.69 6.71353C489.596 7.1781 489.366 7.60433 489.03 7.93848C488.694 8.27262 488.266 8.49972 487.801 8.59111C487.336 8.68251 486.854 8.63411 486.416 8.45203C485.978 8.26995 485.605 7.96233 485.341 7.56799C485.078 7.17364 484.938 6.71022 484.938 6.23619C484.94 5.5978 485.196 4.98647 485.649 4.53646C486.102 4.08646 486.715 3.83459 487.353 3.83619ZM485.27 10.4572H489.435V23.7762H485.27V10.4572Z" fill="#C0C7D1"/>
<path d="M491.739 10.4592H495.739V12.2792H495.795C496.197 11.5981 496.776 11.0385 497.47 10.6598C498.164 10.2811 498.948 10.0974 499.738 10.1282C503.959 10.1282 504.738 12.8862 504.738 16.4712V23.7712H500.569V17.3002C500.569 15.7542 500.54 13.7692 498.402 13.7692C496.237 13.7692 495.902 15.4522 495.902 17.1892V23.7762H491.739V10.4592Z" fill="#C0C7D1"/>
<path d="M506.846 4.12622H511.009V15.8722L515.726 10.4512H520.826L515.363 16.6172L520.711 23.7802H515.483L511.064 17.2002H511.009V23.7842H506.846V4.12622Z" fill="#C0C7D1"/>
<path d="M533.124 21.4693C532.43 22.3039 531.559 22.9744 530.575 23.4325C529.591 23.8907 528.518 24.1253 527.432 24.1193C523.268 24.1193 519.932 21.3593 519.932 17.0843C519.932 12.8093 523.264 10.0513 527.432 10.0513C531.321 10.0513 533.763 12.8093 533.763 17.0843V18.3843H524.1C524.222 19.1222 524.607 19.7911 525.183 20.2677C525.76 20.7442 526.489 20.9962 527.237 20.9773C527.829 20.9742 528.41 20.8237 528.929 20.5395C529.447 20.2552 529.887 19.8461 530.208 19.3493L533.123 21.4733L533.124 21.4693ZM529.598 15.5693C529.605 15.2326 529.543 14.898 529.417 14.5859C529.291 14.2737 529.102 13.9904 528.863 13.7532C528.624 13.5159 528.34 13.3296 528.027 13.2055C527.714 13.0814 527.379 13.0221 527.042 13.0313C526.317 12.9837 525.602 13.223 525.052 13.6976C524.501 14.1722 524.16 14.844 524.1 15.5683L529.598 15.5693Z" fill="#C0C7D1"/>
<path d="M549.6 23.7742H545.771V22.0072H545.717C545.234 22.6511 544.61 23.1754 543.893 23.5395C543.175 23.9037 542.384 24.0979 541.579 24.1072C537.579 24.1072 534.942 21.2392 534.942 17.1842C534.942 13.4592 537.274 10.0392 541.106 10.0392C541.908 9.97083 542.714 10.095 543.458 10.4013C544.201 10.7076 544.861 11.1872 545.382 11.8002H545.437V4.12622H549.6V23.7742ZM542.433 13.6742C541.983 13.6462 541.532 13.7153 541.111 13.8768C540.69 14.0383 540.309 14.2884 539.993 14.6102C539.677 14.932 539.434 15.318 539.281 15.7419C539.127 16.1658 539.067 16.6178 539.103 17.0672C539.103 17.9509 539.454 18.7984 540.079 19.4233C540.704 20.0482 541.551 20.3992 542.435 20.3992C543.319 20.3992 544.166 20.0482 544.791 19.4233C545.416 18.7984 545.767 17.9509 545.767 17.0672C545.803 16.6175 545.742 16.1652 545.589 15.7411C545.435 15.3169 545.191 14.9308 544.875 14.609C544.559 14.2872 544.177 14.0371 543.756 13.8758C543.334 13.7146 542.883 13.6458 542.433 13.6742Z" fill="#C0C7D1"/>
<path d="M579.781 0.000239691C580.323 -0.00805305 580.847 0.199128 581.237 0.576326C581.626 0.953524 581.851 1.46993 581.86 2.01224V25.8952C581.851 26.4378 581.627 26.9546 581.237 27.3321C580.847 27.7097 580.324 27.9173 579.781 27.9092H555.842C555.3 27.9167 554.777 27.7088 554.389 27.3312C554 26.9536 553.777 26.4371 553.769 25.8952V2.01224C553.777 1.47064 554 0.954536 554.389 0.577285C554.778 0.200034 555.3 -0.00751085 555.842 0.000239691H579.781ZM560.018 3.84224C559.544 3.8452 559.081 3.98847 558.689 4.25398C558.296 4.51949 557.991 4.89535 557.811 5.33415C557.632 5.77294 557.587 6.25502 557.681 6.71958C557.775 7.18415 558.005 7.61038 558.341 7.94453C558.677 8.27868 559.105 8.50577 559.57 8.59716C560.035 8.68856 560.517 8.64016 560.955 8.45808C561.393 8.276 561.766 7.96838 562.03 7.57404C562.293 7.17969 562.433 6.71627 562.433 6.24224C562.431 5.60377 562.175 4.99228 561.722 4.54222C561.27 4.09216 560.656 3.84038 560.018 3.84224ZM557.934 10.4632V23.7822H562.1V10.4632H557.934ZM564.714 10.4632V23.7822H568.877V17.1932C568.877 15.4562 569.209 13.7732 571.377 13.7732C573.514 13.7732 573.542 15.7592 573.542 17.3052V23.7822H577.706V16.4762C577.706 12.8902 576.927 10.1322 572.706 10.1322C571.916 10.1019 571.133 10.2859 570.439 10.6645C569.745 11.0432 569.166 11.6025 568.764 12.2832H568.71V10.4632H564.714Z" fill="#C0C7D1"/>
<path fill-rule="evenodd" clip-rule="evenodd" d="M724.356 12.411C719.828 9.73102 712.356 9.48502 708.037 10.792C707.871 10.8457 707.697 10.8658 707.524 10.8513C707.35 10.8367 707.181 10.7877 707.027 10.7073C706.873 10.6268 706.736 10.5164 706.625 10.3825C706.514 10.2486 706.431 10.0939 706.38 9.92741C706.329 9.76095 706.312 9.58606 706.33 9.41295C706.347 9.23985 706.399 9.07199 706.483 8.91919C706.566 8.76639 706.679 8.6317 706.815 8.52299C706.951 8.41427 707.107 8.33372 707.274 8.28602C712.236 6.78602 720.484 7.07502 725.697 10.159C725.85 10.2445 725.984 10.3598 726.092 10.498C726.199 10.6362 726.278 10.7946 726.323 10.9638C726.369 11.133 726.38 11.3096 726.356 11.4831C726.332 11.6566 726.273 11.8235 726.184 11.974C726.094 12.1245 725.975 12.2556 725.834 12.3594C725.693 12.4631 725.532 12.5376 725.362 12.5783C725.192 12.6191 725.015 12.6253 724.842 12.5965C724.669 12.5678 724.504 12.5047 724.356 12.411ZM724.208 16.381C724.055 16.6272 723.811 16.8031 723.529 16.8703C723.247 16.9375 722.95 16.8907 722.702 16.74C718.434 14.3691 713.401 13.7825 708.702 15.108C708.565 15.1508 708.42 15.166 708.277 15.1528C708.133 15.1395 707.994 15.098 707.867 15.0307C707.74 14.9634 707.627 14.8716 707.535 14.7606C707.444 14.6496 707.375 14.5216 707.333 14.3839C707.291 14.2462 707.276 14.1016 707.291 13.9583C707.305 13.8151 707.347 13.676 707.415 13.5492C707.483 13.4223 707.576 13.3102 707.687 13.2192C707.799 13.1282 707.927 13.0602 708.065 13.019C710.687 12.2663 713.433 12.0431 716.142 12.3624C718.851 12.6818 721.47 13.5373 723.845 14.879C723.968 14.9536 724.075 15.0516 724.159 15.1675C724.244 15.2835 724.305 15.415 724.339 15.5546C724.372 15.6942 724.378 15.839 724.356 15.9808C724.333 16.1227 724.283 16.2587 724.208 16.381ZM722.489 20.193C722.368 20.39 722.174 20.531 721.949 20.5853C721.724 20.6397 721.487 20.6029 721.289 20.483C717.989 18.474 713.838 18.02 708.949 19.133C708.835 19.1647 708.716 19.1729 708.599 19.1573C708.482 19.1417 708.37 19.1025 708.268 19.0421C708.167 18.9818 708.079 18.9015 708.009 18.8061C707.94 18.7107 707.89 18.6022 707.864 18.4872C707.838 18.3722 707.835 18.253 707.856 18.1368C707.877 18.0207 707.921 17.91 707.986 17.8115C708.051 17.713 708.135 17.6286 708.234 17.5636C708.332 17.4985 708.443 17.4541 708.559 17.433C713.91 16.214 718.5 16.739 722.202 18.993C722.3 19.0528 722.385 19.1314 722.452 19.2241C722.52 19.3168 722.568 19.422 722.595 19.5334C722.621 19.6449 722.626 19.7606 722.608 19.8738C722.589 19.9869 722.549 20.0954 722.489 20.193ZM716.047 2.05718e-05C713.28 0.00930956 710.578 0.838284 708.282 2.38226C705.986 3.92624 704.199 6.11597 703.146 8.67494C702.094 11.2339 701.823 14.0474 702.369 16.76C702.914 19.4726 704.251 21.9628 706.211 23.916C708.171 25.8692 710.666 27.198 713.38 27.7344C716.094 28.2707 718.907 27.9908 721.462 26.9298C724.018 25.8688 726.202 24.0744 727.738 21.7731C729.274 19.4718 730.094 16.767 730.094 14C730.091 12.1584 729.725 10.3354 729.018 8.63517C728.31 6.93491 727.275 5.39067 725.97 4.09064C724.666 2.79061 723.118 1.76024 721.415 1.05836C719.713 0.356492 717.889 -0.00313378 716.047 2.05718e-05Z" fill="#C0C7D1"/>
<path fill-rule="evenodd" clip-rule="evenodd" d="M740.156 12.844C737.739 12.268 737.309 11.863 737.309 11.013C737.309 10.213 738.065 9.66904 739.19 9.66904C740.398 9.71335 741.558 10.1544 742.49 10.924C742.507 10.9367 742.526 10.9458 742.547 10.9507C742.568 10.9557 742.589 10.9565 742.61 10.953C742.651 10.9455 742.687 10.9221 742.71 10.888L743.9 9.22604C743.923 9.19307 743.933 9.15253 743.927 9.11262C743.922 9.07271 743.901 9.0364 743.87 9.01104C742.561 7.94109 740.915 7.37022 739.225 7.40004C736.615 7.40004 734.792 8.96604 734.792 11.207C734.792 13.607 736.365 14.461 739.082 15.118C741.395 15.651 741.782 16.097 741.782 16.895C741.782 17.779 740.993 18.329 739.722 18.329C738.281 18.3185 736.901 17.7484 735.873 16.739C735.841 16.7122 735.799 16.6986 735.757 16.701C735.736 16.7027 735.716 16.7085 735.697 16.7182C735.679 16.7278 735.662 16.741 735.649 16.757L734.326 18.332C734.3 18.3634 734.286 18.4039 734.289 18.4448C734.292 18.4857 734.311 18.5239 734.342 18.551C735.801 19.8759 737.702 20.6068 739.673 20.6C742.485 20.6 744.303 19.063 744.303 16.685C744.303 14.675 743.103 13.563 740.157 12.847" fill="#C0C7D1"/>
<path fill-rule="evenodd" clip-rule="evenodd" d="M752.46 15.72C752.5 16.0788 752.464 16.4419 752.356 16.7864C752.248 17.1309 752.07 17.4492 751.833 17.7212C751.595 17.9932 751.304 18.213 750.977 18.3667C750.651 18.5203 750.296 18.6046 749.935 18.614C749.573 18.6002 749.218 18.5134 748.891 18.3591C748.564 18.2047 748.271 17.9858 748.03 17.7156C747.789 17.4454 747.606 17.1294 747.49 16.7865C747.374 16.4436 747.329 16.0808 747.357 15.72C747.329 15.3592 747.374 14.9965 747.49 14.6536C747.606 14.3107 747.789 13.9946 748.03 13.7244C748.271 13.4542 748.564 13.2353 748.891 13.081C749.218 12.9266 749.573 12.8399 749.935 12.826C750.294 12.8397 750.647 12.9268 750.972 13.0818C751.296 13.2369 751.586 13.4567 751.822 13.7278C752.059 13.9989 752.237 14.3154 752.347 14.658C752.457 15.0006 752.495 15.362 752.46 15.72ZM750.433 10.62C749.85 10.613 749.273 10.7423 748.748 10.9974C748.223 11.2526 747.766 11.6268 747.411 12.09V10.979C747.411 10.9583 747.407 10.9377 747.399 10.9185C747.392 10.8993 747.38 10.8818 747.365 10.867C747.351 10.8522 747.334 10.8405 747.314 10.8324C747.295 10.8244 747.275 10.8202 747.254 10.82H745.1C745.079 10.8202 745.059 10.8244 745.04 10.8324C745.02 10.8405 745.003 10.8522 744.989 10.867C744.974 10.8818 744.962 10.8993 744.955 10.9185C744.947 10.9377 744.943 10.9583 744.943 10.979V23.335C744.943 23.3558 744.947 23.3763 744.955 23.3956C744.962 23.4148 744.974 23.4323 744.989 23.447C745.003 23.4618 745.02 23.4736 745.04 23.4816C745.059 23.4897 745.079 23.4939 745.1 23.494H747.249C747.27 23.4939 747.29 23.4897 747.309 23.4816C747.329 23.4736 747.346 23.4618 747.36 23.447C747.375 23.4323 747.387 23.4148 747.394 23.3956C747.402 23.3763 747.406 23.3558 747.406 23.335V19.435C747.774 19.8771 748.237 20.2309 748.76 20.4703C749.283 20.7097 749.853 20.8285 750.428 20.818C752.677 20.818 754.954 19.067 754.954 15.718C754.954 12.369 752.682 10.621 750.433 10.621V10.62Z" fill="#C0C7D1"/>
<path fill-rule="evenodd" clip-rule="evenodd" d="M761.1 18.7C760.727 18.6918 760.36 18.6084 760.02 18.4548C759.681 18.3011 759.376 18.0804 759.124 17.8059C758.871 17.5314 758.677 17.2088 758.553 16.8573C758.429 16.5059 758.377 16.133 758.4 15.761C758.373 15.3923 758.421 15.0219 758.543 14.6728C758.664 14.3237 758.856 14.0032 759.107 13.7314C759.357 13.4595 759.661 13.2419 759.999 13.0922C760.337 12.9425 760.702 12.8638 761.072 12.861C761.446 12.8676 761.815 12.9498 762.156 13.1026C762.498 13.2555 762.805 13.4758 763.059 13.7503C763.313 14.0249 763.509 14.348 763.635 14.7002C763.761 15.0525 763.814 15.4266 763.792 15.8C763.818 16.1701 763.768 16.5416 763.645 16.8916C763.522 17.2415 763.328 17.5624 763.075 17.8343C762.823 18.1063 762.517 18.3234 762.178 18.4723C761.838 18.6212 761.471 18.6987 761.1 18.7ZM761.1 10.624C760.082 10.6256 759.086 10.9291 758.241 11.4963C757.395 12.0634 756.736 12.8686 756.348 13.8102C755.96 14.7517 755.859 15.7872 756.06 16.7857C756.26 17.7842 756.752 18.7009 757.473 19.4199C758.194 20.1388 759.113 20.6277 760.112 20.8247C761.111 21.0217 762.146 20.918 763.087 20.5267C764.027 20.1353 764.83 19.474 765.394 18.6262C765.958 17.7785 766.259 16.7824 766.257 15.764C766.26 15.0866 766.128 14.4154 765.87 13.7891C765.612 13.1629 765.232 12.5942 764.752 12.1158C764.273 11.6375 763.703 11.2591 763.076 11.0025C762.449 10.7459 761.777 10.6162 761.1 10.621V10.624Z" fill="#C0C7D1"/>
<path fill-rule="evenodd" clip-rule="evenodd" d="M772.24 10.647H769.89V8.20002C769.89 8.17931 769.886 8.15876 769.879 8.13955C769.871 8.12034 769.86 8.10284 769.845 8.08806C769.831 8.07328 769.813 8.06152 769.794 8.05344C769.775 8.04537 769.755 8.04115 769.734 8.04102H767.6C767.579 8.04115 767.559 8.04536 767.54 8.05342C767.521 8.06149 767.503 8.07323 767.489 8.088C767.474 8.10276 767.462 8.12025 767.455 8.13947C767.447 8.15869 767.443 8.17927 767.443 8.20002V10.642H766.416C766.395 10.6421 766.375 10.6464 766.356 10.6544C766.337 10.6625 766.319 10.6743 766.305 10.6891C766.29 10.7038 766.279 10.7213 766.271 10.7406C766.264 10.7598 766.26 10.7803 766.26 10.801V12.666C766.26 12.6867 766.264 12.7073 766.271 12.7265C766.279 12.7457 766.29 12.7632 766.305 12.778C766.319 12.7928 766.337 12.8045 766.356 12.8126C766.375 12.8207 766.395 12.8249 766.416 12.825H767.443V17.652C767.443 19.603 768.398 20.592 770.282 20.592C770.982 20.6086 771.674 20.4337 772.282 20.086C772.306 20.072 772.326 20.0518 772.34 20.0276C772.354 20.0034 772.361 19.9759 772.361 19.948V18.177C772.361 18.1501 772.354 18.1236 772.341 18.1C772.328 18.0764 772.31 18.0565 772.287 18.042C772.264 18.0278 772.239 18.0197 772.212 18.0184C772.185 18.0172 772.159 18.0229 772.135 18.035C771.749 18.2391 771.319 18.3449 770.882 18.343C770.197 18.343 769.891 18.027 769.891 17.318V12.831H772.241C772.262 12.8309 772.282 12.8267 772.301 12.8186C772.32 12.8105 772.338 12.7987 772.352 12.784C772.367 12.7692 772.378 12.7517 772.386 12.7325C772.393 12.7133 772.397 12.6927 772.397 12.672V10.806C772.397 10.7853 772.393 10.7648 772.386 10.7456C772.378 10.7263 772.367 10.7088 772.352 10.6941C772.338 10.6793 772.32 10.6675 772.301 10.6594C772.282 10.6514 772.262 10.6471 772.241 10.647" fill="#C0C7D1"/>
<path fill-rule="evenodd" clip-rule="evenodd" d="M780.552 10.816V10.516C780.552 9.63497 780.889 9.24297 781.644 9.24297C782.06 9.24784 782.471 9.32394 782.861 9.46797C782.885 9.47593 782.91 9.47808 782.935 9.47425C782.96 9.47042 782.983 9.46072 783.004 9.44596C783.024 9.43119 783.041 9.41179 783.052 9.38935C783.063 9.36692 783.069 9.34211 783.069 9.31697V7.49097C783.069 7.457 783.058 7.4239 783.038 7.39655C783.018 7.3692 782.989 7.34902 782.957 7.33897C782.374 7.16039 781.767 7.07302 781.157 7.07997C779.157 7.07997 778.108 8.20697 778.108 10.338V10.8H777.075C777.033 10.8002 776.993 10.8171 776.963 10.8469C776.934 10.8767 776.917 10.917 776.917 10.959V12.831C776.917 12.873 776.934 12.9133 776.963 12.9431C776.993 12.9728 777.033 12.9897 777.075 12.99H778.113V20.422C778.113 20.4428 778.117 20.4635 778.125 20.4827C778.133 20.502 778.144 20.5196 778.159 20.5343C778.174 20.5491 778.191 20.5609 778.21 20.5689C778.23 20.5769 778.25 20.581 778.271 20.581H780.431C780.473 20.5807 780.513 20.5638 780.543 20.5341C780.572 20.5043 780.589 20.464 780.589 20.422V12.985H782.6L785.689 20.415C785.338 21.196 784.989 21.351 784.523 21.351C784.104 21.3403 783.694 21.2237 783.332 21.012C783.313 21.0014 783.292 20.9949 783.27 20.9929C783.249 20.9909 783.227 20.9935 783.206 21.0004C783.185 21.0074 783.167 21.0186 783.15 21.0334C783.134 21.0481 783.122 21.066 783.113 21.086L782.385 22.7C782.37 22.7358 782.368 22.7761 782.381 22.813C782.393 22.8499 782.419 22.8809 782.453 22.9C783.156 23.2992 783.952 23.5036 784.76 23.492C786.355 23.492 787.236 22.747 788.013 20.742L791.76 11.03C791.769 11.0059 791.773 10.98 791.77 10.9544C791.767 10.9288 791.758 10.9043 791.743 10.883C791.729 10.8617 791.709 10.8443 791.687 10.8323C791.664 10.8203 791.639 10.814 791.613 10.814H789.365C789.332 10.814 789.3 10.8241 789.273 10.8431C789.246 10.8621 789.226 10.889 789.215 10.92L786.915 17.52L784.392 10.92C784.38 10.8904 784.36 10.865 784.334 10.8472C784.308 10.8293 784.277 10.8198 784.245 10.82H780.552" fill="#C0C7D1"/>
<path fill-rule="evenodd" clip-rule="evenodd" d="M776.106 10.621H773.853C773.832 10.6205 773.811 10.6241 773.791 10.6317C773.771 10.6393 773.753 10.6508 773.738 10.6653C773.723 10.6799 773.71 10.6974 773.702 10.7167C773.693 10.736 773.689 10.7569 773.688 10.778V20.12C773.689 20.1412 773.693 20.162 773.702 20.1813C773.71 20.2007 773.723 20.2181 773.738 20.2327C773.753 20.2473 773.771 20.2587 773.791 20.2663C773.811 20.2739 773.832 20.2776 773.853 20.277H776.106C776.127 20.2776 776.148 20.2739 776.168 20.2663C776.188 20.2587 776.206 20.2473 776.221 20.2327C776.236 20.2181 776.249 20.2007 776.257 20.1813C776.266 20.162 776.27 20.1412 776.271 20.12V10.778C776.27 10.7569 776.266 10.736 776.257 10.7167C776.249 10.6974 776.236 10.6799 776.221 10.6653C776.206 10.6508 776.188 10.6393 776.168 10.6317C776.148 10.6241 776.127 10.6205 776.106 10.621Z" fill="#C0C7D1"/>
<path fill-rule="evenodd" clip-rule="evenodd" d="M774.98 6.43701C774.662 6.438 774.351 6.53321 774.087 6.71061C773.823 6.888 773.618 7.13964 773.497 7.43373C773.376 7.72782 773.345 8.05118 773.408 8.36297C773.47 8.67475 773.624 8.96098 773.849 9.1855C774.074 9.41003 774.361 9.56277 774.673 9.62445C774.985 9.68613 775.308 9.65398 775.602 9.53205C775.896 9.41012 776.147 9.20389 776.323 8.9394C776.5 8.67491 776.594 8.36403 776.594 8.04601C776.593 7.61866 776.423 7.20911 776.12 6.90739C775.817 6.60567 775.407 6.43648 774.98 6.43701Z" fill="#C0C7D1"/>
<path fill-rule="evenodd" clip-rule="evenodd" d="M793.627 11.5291H793.25V12.0091H793.627C793.815 12.0091 793.927 11.9171 793.927 11.7691C793.927 11.6211 793.816 11.5291 793.627 11.5291ZM793.872 12.2131L794.282 12.7851H793.936L793.567 12.2601H793.25V12.7851H792.961V11.2691H793.639C793.992 11.2691 794.225 11.4491 794.225 11.7531C794.229 11.8589 794.196 11.9629 794.132 12.0469C794.067 12.131 793.975 12.1898 793.872 12.2131ZM793.551 10.7641C793.294 10.7641 793.043 10.8403 792.829 10.9832C792.615 11.126 792.448 11.329 792.35 11.5666C792.252 11.8041 792.226 12.0655 792.276 12.3177C792.326 12.5699 792.45 12.8015 792.632 12.9833C792.814 13.1651 793.045 13.2889 793.297 13.3391C793.55 13.3892 793.811 13.3635 794.048 13.2651C794.286 13.1667 794.489 13.0001 794.632 12.7863C794.775 12.5725 794.851 12.3212 794.851 12.0641C794.852 11.8931 794.819 11.7237 794.754 11.5656C794.689 11.4076 794.593 11.2639 794.472 11.1431C794.351 11.0222 794.208 10.9265 794.049 10.8614C793.891 10.7964 793.722 10.7633 793.551 10.7641ZM793.543 13.5171C793.257 13.5153 792.978 13.429 792.742 13.269C792.505 13.1091 792.32 12.8826 792.212 12.6181C792.104 12.3537 792.076 12.0631 792.133 11.7829C792.189 11.5028 792.327 11.2456 792.53 11.0438C792.732 10.842 792.989 10.7046 793.27 10.6489C793.55 10.5932 793.841 10.6216 794.105 10.7307C794.369 10.8398 794.595 11.0246 794.754 11.2619C794.913 11.4992 794.999 11.7783 795 12.0641C795.002 12.2557 794.965 12.4457 794.892 12.6229C794.82 12.8002 794.712 12.9612 794.577 13.0965C794.441 13.2318 794.28 13.3387 794.102 13.4109C793.925 13.4831 793.735 13.5192 793.543 13.5171Z" fill="#C0C7D1"/>
</svg>
