<svg width="130" height="86" viewBox="0 0 130 86" fill="none" xmlns="http://www.w3.org/2000/svg">
<path fill-rule="evenodd" clip-rule="evenodd" d="M35.1819 33.0186L34.4249 37.0306C37.4441 39.2386 39.8573 42.1729 41.4409 45.5616C43.2389 49.7128 44.3964 54.1129 44.8739 58.6116L46.0349 55.3116C45.6777 51.316 44.7248 47.3962 43.2079 43.6826C39.9279 35.6596 35.1829 33.0186 35.1829 33.0186" fill="#FF7800"/>
<path fill-rule="evenodd" clip-rule="evenodd" d="M33.97 39.4718L33.314 42.9248C33.314 42.9248 37.453 45.3628 40.28 51.5578C41.8111 55.2083 42.8301 59.0531 43.308 62.9828L44.368 60.1388C43.8646 56.2011 42.8099 52.3537 41.235 48.7098C38.056 41.6008 33.967 39.4678 33.967 39.4678" fill="#FF7800"/>
<path fill-rule="evenodd" clip-rule="evenodd" d="M40.6839 36.0656C40.6839 36.0656 42.6529 30.1756 47.4469 30.2766C52.2409 30.3776 54.1599 34.4906 58.6529 34.0846C65.1139 33.4756 69.5529 25.0966 69.5529 25.0966L68.8969 21.9966C68.8969 21.9966 64.9089 29.3596 58.5969 29.6136C54.3569 29.7656 52.8969 26.3136 48.4509 26.0076C42.3939 25.6016 40.1729 32.5076 40.1729 32.5076L40.6729 36.0616" fill="#FF7800"/>
<path fill-rule="evenodd" clip-rule="evenodd" d="M46.5349 50.9948C46.5349 50.9948 49.1089 45.8148 53.7529 45.8658C57.9929 45.9168 60.2139 50.0808 64.7059 49.7248C69.9559 49.3188 73.1859 41.8538 73.1859 41.8538L72.5799 39.1118C72.5799 39.1118 69.8039 45.4588 64.5039 45.6618C60.3149 45.8138 59.0039 42.3098 54.5599 42.0058C49.4599 41.5998 46.7359 46.9318 46.7359 46.9318L46.5359 50.9948" fill="#FF7800"/>
<path fill-rule="evenodd" clip-rule="evenodd" d="M13.2749 66.1266L13.1749 69.2756C13.0239 69.2246 10.4499 69.1756 8.78394 69.1756C8.53194 72.5276 8.38394 77.6046 8.32994 80.2966H3.78594C4.18817 76.6018 4.39046 72.8881 4.39194 69.1716C2.97894 69.1716 1.51494 69.2226 -6.10352e-05 69.2716L0.151939 66.1226H13.2749" fill="#FF7800"/>
<path fill-rule="evenodd" clip-rule="evenodd" d="M14.335 73.5408C14.3608 73.0441 14.5723 72.5753 14.9276 72.2273C15.2828 71.8793 15.7559 71.6774 16.253 71.6618C17.313 71.6618 17.818 72.2708 17.818 73.5408H14.335ZM21.604 75.5208C21.7288 74.989 21.7796 74.4425 21.755 73.8968C21.755 70.8968 19.837 69.2248 16.304 69.2248C15.4945 69.1666 14.6819 69.2803 13.9195 69.5585C13.1571 69.8368 12.4623 70.2732 11.8806 70.8392C11.299 71.4052 10.8437 72.0878 10.5447 72.8423C10.2458 73.5968 10.1099 74.406 10.146 75.2168C10.146 79.4828 13.124 80.5488 16.556 80.5488C17.8116 80.542 19.0632 80.406 20.291 80.1428L20.791 77.0958C19.5857 77.5078 18.3283 77.7472 17.056 77.8068C15.592 77.8068 14.229 77.1978 14.229 75.5218L21.604 75.5208Z" fill="#FF7800"/>
<path fill-rule="evenodd" clip-rule="evenodd" d="M31.6989 72.8297C30.8076 72.5097 29.8698 72.3381 28.923 72.3217C28.5665 72.2894 28.2073 72.3352 27.8703 72.456C27.5334 72.5768 27.2269 72.7696 26.9722 73.0211C26.7175 73.2726 26.5207 73.5766 26.3956 73.9119C26.2706 74.2473 26.2201 74.6059 26.2479 74.9627C26.2045 75.2985 26.2385 75.6397 26.3472 75.9603C26.4559 76.2808 26.6365 76.5723 26.8751 76.8124C27.1138 77.0525 27.4041 77.2348 27.7241 77.3455C28.044 77.4561 28.385 77.4921 28.7209 77.4507C29.635 77.4343 30.5395 77.2625 31.396 76.9427L30.841 80.1427C29.8006 80.4025 28.7332 80.5388 27.6609 80.5487C24.1269 80.5487 22.1609 78.6187 22.1609 75.0647C22.1609 73.8967 22.413 69.2247 27.861 69.2247C29.0851 69.1948 30.3076 69.3314 31.4949 69.6307L31.695 72.8307" fill="#FF7800"/>
<path fill-rule="evenodd" clip-rule="evenodd" d="M37.15 65.8214C37.05 66.6344 36.85 69.4274 36.75 70.9504L36.8 71.0014C37.759 69.5794 38.87 69.2244 40.939 69.2244C43.058 69.2244 44.876 70.0374 44.876 72.6774C44.876 73.2364 44.576 77.5514 44.576 80.2944H40.335C40.487 78.4154 40.635 76.4854 40.635 74.6064C40.635 73.5914 40.335 72.5714 39.068 72.5714C38.5673 72.5897 38.0871 72.7744 37.7031 73.0962C37.3192 73.418 37.0535 73.8586 36.948 74.3484C36.5803 76.3074 36.3945 78.2962 36.393 80.2894H32.153C32.453 77.5474 32.86 71.0474 32.86 65.8174H37.151" fill="#FF7800"/>
<path fill-rule="evenodd" clip-rule="evenodd" d="M50.5769 68.8718C50.3769 72.6808 50.2769 76.4888 50.2239 80.2968H45.7349C46.252 75.4897 46.4857 70.6563 46.4349 65.8218H54.0569C55.0669 65.8218 59.2059 65.9218 59.2059 69.6818C59.2059 71.9668 57.8939 73.1818 55.8239 73.8968C56.6819 76.0798 57.7419 78.1108 58.6509 80.2968H53.8509C53.0939 77.5548 52.0839 74.8638 51.0749 72.1718C51.4217 72.2552 51.7786 72.2889 52.1349 72.2718C53.3959 72.2718 54.8599 71.8148 54.8599 70.3418C54.8599 68.8688 53.4539 68.8718 52.4449 68.8718H50.5769Z" fill="#FF7800"/>
<path fill-rule="evenodd" clip-rule="evenodd" d="M62.6409 73.5407C62.6668 73.0442 62.8781 72.5756 63.2332 72.2275C63.5882 71.8795 64.061 71.6776 64.5579 71.6617C65.5679 71.6617 66.0719 72.2707 66.0719 73.5407H62.6409ZM69.9089 75.5207C70.0092 74.9852 70.0597 74.4415 70.0599 73.8967C70.0599 70.8967 68.1419 69.2247 64.6079 69.2247C63.7951 69.1618 62.9781 69.2719 62.2109 69.5478C61.4437 69.8238 60.7438 70.2592 60.1571 70.8254C59.5705 71.3916 59.1106 72.0757 58.8077 72.8326C58.5048 73.5896 58.3659 74.4021 58.3999 75.2167C58.3999 79.4827 61.3779 80.5487 64.8099 80.5487C66.0656 80.5419 67.3172 80.4058 68.5449 80.1427L69.0999 77.0957C67.8772 77.5078 66.6029 77.7472 65.3139 77.8067C63.9009 77.8067 62.4869 77.1977 62.4869 75.5217L69.9089 75.5207Z" fill="#FF7800"/>
<path fill-rule="evenodd" clip-rule="evenodd" d="M74.7539 72.3718C75.2686 72.2585 75.7924 72.1916 76.3189 72.1718C76.6548 72.1416 76.9931 72.1876 77.3087 72.3062C77.6243 72.4248 77.9092 72.6131 78.142 72.857C78.3748 73.1009 78.5497 73.3941 78.6536 73.7149C78.7574 74.0357 78.7876 74.3757 78.7419 74.7098C78.7419 75.9798 78.1359 77.6048 76.6219 77.6048C75.1579 77.6048 74.5519 76.1828 74.5519 74.9138C74.569 74.0632 74.6364 73.2144 74.7539 72.3718ZM74.1989 85.2188C74.1989 83.2388 74.2989 81.2078 74.3989 79.1768C75.4521 80.0792 76.7982 80.5666 78.1849 80.5478C81.3149 80.5478 82.8289 77.6528 82.8289 74.8608C82.8289 71.9158 81.3649 69.2238 76.9739 69.2238C74.8746 69.2104 72.7787 69.3976 70.7149 69.7828C70.7149 74.9108 70.4149 80.0908 69.9579 85.2198L74.1989 85.2188Z" fill="#FF7800"/>
<path fill-rule="evenodd" clip-rule="evenodd" d="M91.2089 78.8715H91.1589C90.7217 79.4489 90.1448 79.9057 89.4825 80.1988C88.8203 80.492 88.0943 80.612 87.3729 80.5475C84.3949 80.5475 83.5369 79.0745 83.5369 77.2475C83.5369 76.5365 83.9369 71.6115 83.9369 69.4785H88.1349C88.0349 71.4085 87.7349 73.3375 87.7349 75.2165C87.7349 76.2825 88.0879 77.1465 89.2999 77.1465C90.3599 77.1465 90.9659 76.2835 91.2179 75.3185C91.4653 73.3822 91.5833 71.4315 91.5709 69.4795H95.7599C95.4069 73.0845 95.2599 76.6895 95.1539 80.2955H91.2089V78.8715Z" fill="#FF7800"/>
<path fill-rule="evenodd" clip-rule="evenodd" d="M100.749 72.3714C101.262 72.2517 101.787 72.1847 102.314 72.1714C102.646 72.1468 102.98 72.1971 103.29 72.3185C103.601 72.4398 103.88 72.6292 104.107 72.8727C104.335 73.1161 104.505 73.4075 104.605 73.7254C104.705 74.0432 104.733 74.3795 104.686 74.7094C104.686 75.9794 104.086 77.6044 102.567 77.6044C101.103 77.6044 100.497 76.1824 100.497 74.9134C100.506 74.0603 100.59 73.2096 100.749 72.3714ZM100.194 78.9214H100.245C100.633 79.4481 101.144 79.8717 101.734 80.155C102.323 80.4383 102.973 80.5727 103.627 80.5464C107.058 80.5464 108.775 77.6014 108.775 74.4534C108.775 71.0534 106.806 69.2224 103.475 69.2224C103.054 69.214 102.632 69.231 102.213 69.2734C101.788 69.3112 101.367 69.3781 100.951 69.4734C101.051 67.9504 101.103 66.8834 101.251 65.8174H96.9629C96.9129 70.6414 96.6099 75.4654 96.2559 80.2894H100.193L100.194 78.9214Z" fill="#FF7800"/>
<path fill-rule="evenodd" clip-rule="evenodd" d="M114.175 65.8218C113.924 68.2598 113.469 76.4858 113.368 80.2938H109.078C109.532 75.4698 109.734 70.6458 109.885 65.8218H114.175Z" fill="#FF7800"/>
<path fill-rule="evenodd" clip-rule="evenodd" d="M114.428 80.2948C114.781 76.9948 114.933 73.7948 114.983 69.4788H119.324C118.989 73.0738 118.855 76.6848 118.924 80.2948H114.428ZM115.084 68.1078L115.135 65.5718H119.325L119.225 68.1108L115.084 68.1078Z" fill="#FF7800"/>
<path fill-rule="evenodd" clip-rule="evenodd" d="M129.369 72.8295C128.494 72.5141 127.573 72.3426 126.643 72.3215C126.283 72.2841 125.919 72.3259 125.578 72.4441C125.236 72.5624 124.924 72.7542 124.664 73.006C124.404 73.2577 124.203 73.5634 124.074 73.9015C123.945 74.2395 123.892 74.6017 123.918 74.9625C123.874 75.2982 123.908 75.6394 124.017 75.96C124.125 76.2806 124.306 76.5721 124.544 76.8122C124.783 77.0523 125.073 77.2347 125.393 77.3453C125.713 77.456 126.054 77.492 126.39 77.4506C127.304 77.4342 128.209 77.2624 129.066 76.9425L128.511 80.1425C127.471 80.4054 126.403 80.5418 125.33 80.5485C121.798 80.5485 119.83 78.6185 119.83 75.0645C119.83 73.8965 120.082 69.2245 125.53 69.2245C126.755 69.1915 127.978 69.3282 129.165 69.6305L129.365 72.8305" fill="#FF7800"/>
<path d="M130 0H0V2H130V0Z" fill="#343745"/>
<path d="M47 0H0V2H47V0Z" fill="#FF7800"/>
</svg>
