<svg width="131" height="73" viewBox="0 0 131 73" fill="none" xmlns="http://www.w3.org/2000/svg">
<path fill-rule="evenodd" clip-rule="evenodd" d="M10.6 38.4176C11.232 38.4113 11.8516 38.5929 12.3801 38.9395C12.9086 39.2861 13.3222 39.7819 13.5683 40.364C13.8145 40.9461 13.882 41.5883 13.7624 42.2088C13.6428 42.8294 13.3414 43.4005 12.8965 43.8494C12.4517 44.2983 11.8834 44.6049 11.264 44.7302C10.6445 44.8555 10.0018 44.7938 9.41743 44.553C8.83308 44.3123 8.33349 43.9032 7.98212 43.3779C7.63074 42.8526 7.44344 42.2347 7.444 41.6026C7.44785 40.7641 7.78069 39.9606 8.3709 39.365C8.96112 38.7693 9.76155 38.4292 10.6 38.4176Z" fill="#343745"/>
<path fill-rule="evenodd" clip-rule="evenodd" d="M5.168 36.5656C5.27916 36.5725 5.3835 36.6215 5.4597 36.7028C5.5359 36.784 5.57822 36.8912 5.578 37.0026V67.3396C5.57854 67.4559 5.53293 67.5676 5.45119 67.6503C5.36946 67.7329 5.25826 67.7798 5.142 67.7806H0.436005C0.319748 67.7798 0.208553 67.7329 0.126815 67.6503C0.0450777 67.5676 -0.000527753 67.4559 4.60892e-06 67.3396V36.7106C-6.19844e-06 36.6483 0.0131866 36.5867 0.0387138 36.5299C0.064241 36.473 0.101523 36.4222 0.148103 36.3808C0.194683 36.3395 0.249504 36.3084 0.308954 36.2898C0.368403 36.2711 0.431131 36.2653 0.493005 36.2726C2.05034 36.3719 3.60867 36.4696 5.168 36.5656Z" fill="#343745"/>
<path fill-rule="evenodd" clip-rule="evenodd" d="M8.23001 45.0665L13 45.3665C13.1112 45.3734 13.2155 45.4225 13.2917 45.5037C13.3679 45.5849 13.4102 45.6922 13.41 45.8035V67.3315C13.4105 67.4478 13.3649 67.5595 13.2832 67.6422C13.2015 67.7249 13.0903 67.7717 12.974 67.7725H8.17401C8.05775 67.7717 7.94656 67.7249 7.86482 67.6422C7.78308 67.5595 7.73748 67.4478 7.73801 67.3315V45.5025C7.73748 45.3863 7.78308 45.2746 7.86482 45.1919C7.94656 45.1092 8.05775 45.0623 8.17401 45.0615C8.1928 45.0613 8.21156 45.063 8.23001 45.0665Z" fill="#343745"/>
<path fill-rule="evenodd" clip-rule="evenodd" d="M15.795 43.3924C15.8042 42.3073 16.0422 41.2363 16.4933 40.2493C16.9444 39.2623 17.5985 38.3815 18.413 37.6644C19.2475 36.9361 20.2483 36.4244 21.3273 36.1743C22.4063 35.9242 23.5302 35.9435 24.6 36.2304L25.176 36.3874C25.2753 36.414 25.362 36.4747 25.421 36.5588C25.4801 36.6429 25.5077 36.745 25.499 36.8474L25.33 41.5564C25.3262 41.6699 25.2787 41.7775 25.1975 41.8569C25.1162 41.9362 25.0076 41.9812 24.894 41.9824H22.694C21.762 41.9824 21.374 42.7884 21.374 43.6364V49.4364H24.527C24.6433 49.4372 24.7545 49.4841 24.8362 49.5668C24.9179 49.6494 24.9635 49.7612 24.963 49.8774V54.7264C24.9635 54.8428 24.918 54.9546 24.8363 55.0374C24.7546 55.1203 24.6434 55.1674 24.527 55.1684H21.373V72.1544C21.3735 72.2707 21.3279 72.3824 21.2462 72.4651C21.1645 72.5478 21.0533 72.5946 20.937 72.5954L16.254 72.8694C16.1946 72.8717 16.1354 72.862 16.0799 72.8409C16.0243 72.8197 15.9736 72.7876 15.9308 72.7465C15.8879 72.7053 15.8538 72.6559 15.8305 72.6013C15.8072 72.5466 15.7951 72.4878 15.795 72.4284V43.3924Z" fill="#343745"/>
<path fill-rule="evenodd" clip-rule="evenodd" d="M26.643 51.9276C26.6498 50.9672 26.8399 50.0169 27.203 49.1276C27.7102 47.8237 28.6023 46.7051 29.7607 45.9206C30.9192 45.136 32.289 44.7227 33.688 44.7356C35.0017 44.7329 36.2883 45.1098 37.3928 45.8211C38.4974 46.5323 39.3729 47.5475 39.914 48.7446C40.2927 49.5314 40.4993 50.3898 40.52 51.2626V56.4726C40.5309 56.8588 40.4597 57.2428 40.3113 57.5995C40.1629 57.9561 39.9406 58.2772 39.659 58.5416C39.0554 59.0767 38.2713 59.3626 37.465 59.3416H32.222V60.6606C32.1995 60.8697 32.2202 61.0811 32.2826 61.2818C32.3451 61.4825 32.4481 61.6683 32.5852 61.8276C32.7223 61.9869 32.8907 62.1165 33.0798 62.2081C33.269 62.2998 33.475 62.3517 33.685 62.3606H38.154C38.2132 62.3613 38.2717 62.3738 38.326 62.3975C38.3802 62.4212 38.4292 62.4556 38.4699 62.4986C38.5106 62.5416 38.5422 62.5924 38.5628 62.6479C38.5834 62.7034 38.5927 62.7625 38.59 62.8216L38.718 66.9216C38.7228 67.0295 38.6872 67.1352 38.6183 67.2182C38.5493 67.3012 38.4519 67.3556 38.345 67.3706L33.7 68.0586C33.457 68.0949 33.2117 68.1143 32.966 68.1166C31.4077 68.0733 29.9287 67.4201 28.847 66.2976C27.4446 64.8911 26.6528 62.9888 26.643 61.0026V51.9276ZM33.605 50.4366C33.2375 50.4442 32.8875 50.5946 32.6291 50.856C32.3707 51.1173 32.2243 51.4691 32.221 51.8366V53.6286H34.99V51.8366C34.9875 51.4687 34.8412 51.1164 34.5824 50.8548C34.3236 50.5932 33.9729 50.4432 33.605 50.4366Z" fill="#343745"/>
<path fill-rule="evenodd" clip-rule="evenodd" d="M47.234 45.6175C48.0534 45.4249 48.8923 45.328 49.734 45.3285C50.6465 45.3112 51.5517 45.4932 52.3866 45.8617C53.2215 46.2303 53.966 46.7766 54.568 47.4625C55.6684 48.8016 56.2445 50.4951 56.189 52.2275V67.3395C56.1895 67.4557 56.1439 67.5675 56.0622 67.6501C55.9805 67.7328 55.8693 67.7797 55.753 67.7805H52.753C52.6951 67.7805 52.6379 67.7691 52.5844 67.7469C52.531 67.7247 52.4824 67.6922 52.4415 67.6512C52.4007 67.6103 52.3683 67.5617 52.3462 67.5082C52.3242 67.4547 52.3129 67.3973 52.313 67.3395V52.1595C52.3319 51.8069 52.2741 51.4544 52.1438 51.1262C52.0135 50.7981 51.8137 50.502 51.5581 50.2584C51.3025 50.0148 50.9972 49.8294 50.6632 49.7149C50.3292 49.6005 49.9743 49.5597 49.623 49.5955H47.223V67.3355C47.2235 67.4517 47.1779 67.5635 47.0962 67.6461C47.0145 67.7288 46.9033 67.7757 46.787 67.7765H43.787C43.6708 67.7757 43.5596 67.7288 43.4778 67.6461C43.3961 67.5635 43.3505 67.4517 43.351 67.3355V36.8845C43.3507 36.8258 43.3622 36.7677 43.3848 36.7135C43.4073 36.6594 43.4405 36.6103 43.4824 36.5692C43.5243 36.5281 43.5739 36.4957 43.6285 36.4742C43.683 36.4526 43.7414 36.4421 43.8 36.4435H46.8C46.9163 36.4443 47.0275 36.4911 47.1092 36.5738C47.1909 36.6565 47.2365 36.7682 47.236 36.8845L47.234 45.6175Z" fill="#343745"/>
<path fill-rule="evenodd" clip-rule="evenodd" d="M93.641 67.3354C93.6415 67.4516 93.5959 67.5633 93.5142 67.646C93.4324 67.7287 93.3212 67.7756 93.205 67.7764H90.205C90.0887 67.7756 89.9775 67.7287 89.8958 67.646C89.8141 67.5633 89.7685 67.4516 89.769 67.3354V36.8844C89.7687 36.8266 89.7799 36.7694 89.8017 36.716C89.8236 36.6626 89.8558 36.614 89.8965 36.573C89.9372 36.532 89.9856 36.4995 90.0388 36.4773C90.0921 36.455 90.1493 36.4435 90.207 36.4434H93.207C93.2649 36.4434 93.3222 36.4548 93.3756 36.4769C93.429 36.4991 93.4776 36.5316 93.5185 36.5726C93.5593 36.6135 93.5917 36.6622 93.6138 36.7157C93.6358 36.7692 93.6471 36.8265 93.647 36.8844V54.6504L98.887 45.8614C98.9248 45.7969 98.9786 45.7433 99.0433 45.7058C99.108 45.6683 99.1812 45.6481 99.256 45.6474H102.756C102.837 45.646 102.916 45.6671 102.985 45.7082C103.054 45.7493 103.111 45.8089 103.148 45.8802C103.186 45.9515 103.203 46.0318 103.197 46.1122C103.192 46.1926 103.164 46.2698 103.117 46.3354L97.456 56.0164L103.603 67.1164C103.639 67.1836 103.657 67.259 103.656 67.3354C103.655 67.4117 103.634 67.4864 103.595 67.5524C103.557 67.6183 103.502 67.6734 103.437 67.7122C103.371 67.7511 103.296 67.7725 103.22 67.7744H99.844C99.7594 67.7747 99.6765 67.7503 99.6055 67.7043C99.5344 67.6584 99.4783 67.5927 99.444 67.5154L93.645 57.3024L93.641 67.3354Z" fill="#343745"/>
<path fill-rule="evenodd" clip-rule="evenodd" d="M129.714 45.9444C129.803 45.9776 129.88 46.0389 129.931 46.1192C129.983 46.1994 130.007 46.2943 130 46.3894L129.891 48.8894C129.888 49.0022 129.841 49.1093 129.76 49.1883C129.68 49.2672 129.572 49.3117 129.459 49.3124H126.6C126.369 49.3081 126.137 49.3208 125.908 49.3504C125.254 49.4562 124.662 49.802 124.249 50.3204C123.815 50.8676 123.581 51.547 123.587 52.2454V67.3454C123.588 67.4617 123.542 67.5734 123.46 67.6561C123.378 67.7388 123.267 67.7856 123.151 67.7864H120.151C120.035 67.7856 119.924 67.7388 119.842 67.6561C119.76 67.5734 119.714 67.4617 119.715 67.3454V52.1104C119.714 50.5486 120.236 49.0313 121.197 47.8004C123.335 45.0854 126.728 44.8454 129.714 45.9444Z" fill="#343745"/>
<path fill-rule="evenodd" clip-rule="evenodd" d="M114.322 64.1255C114.433 64.1265 114.539 64.1695 114.619 64.2458C114.699 64.3221 114.747 64.426 114.754 64.5365L114.916 66.9435C114.924 67.0537 114.89 67.1629 114.821 67.249C114.752 67.3352 114.652 67.3918 114.543 67.4075L110.571 67.9965C110.293 68.0357 110.013 68.056 109.733 68.0575C108.997 68.0544 108.27 67.8994 107.597 67.6022C106.924 67.3051 106.319 66.8721 105.821 66.3305C104.64 65.0402 103.987 63.3528 103.992 61.6035V51.6535C104.025 49.969 104.718 48.3649 105.922 47.1866C107.127 46.0083 108.745 45.35 110.43 45.3535C112.115 45.3571 113.731 46.0221 114.93 47.2055C116.129 48.3889 116.816 49.9959 116.842 51.6805V56.6025C116.855 56.8789 116.81 57.155 116.71 57.4132C116.611 57.6714 116.458 57.906 116.263 58.1022C116.068 58.2983 115.834 58.4516 115.576 58.5524C115.318 58.6531 115.042 58.6991 114.766 58.6875H107.866V60.9805C107.826 61.8254 108.087 62.6571 108.603 63.3275C108.847 63.5963 109.147 63.808 109.482 63.9475C109.817 64.087 110.178 64.1508 110.541 64.1345L114.322 64.1255ZM110.422 49.3415C109.743 49.3535 109.096 49.6303 108.619 50.113C108.142 50.5956 107.872 51.2457 107.868 51.9245V54.7425H112.968V51.9245C112.961 51.247 112.691 50.5988 112.215 50.1168C111.739 49.6348 111.094 49.3567 110.417 49.3415H110.422Z" fill="#343745"/>
<path fill-rule="evenodd" clip-rule="evenodd" d="M80.682 45.3286C82.3424 45.3416 83.9342 45.9924 85.128 47.1466C86.3218 48.3007 87.026 49.8696 87.095 51.5286V52.2586C87.0956 52.373 87.0515 52.4831 86.9721 52.5655C86.8927 52.6478 86.7843 52.696 86.67 52.6996L83.638 52.7756C83.5807 52.7773 83.5236 52.7677 83.47 52.7472C83.4164 52.7267 83.3674 52.6959 83.3259 52.6563C83.2843 52.6168 83.251 52.5695 83.2278 52.517C83.2047 52.4645 83.1922 52.408 83.191 52.3506L83.168 51.6006C83.1117 50.9808 82.8252 50.4047 82.365 49.9857C81.9048 49.5668 81.3043 49.3356 80.682 49.3376C80.0069 49.3526 79.364 49.6298 78.8896 50.1104C78.4152 50.591 78.1463 51.2373 78.14 51.9126V61.5126C78.1333 61.855 78.1952 62.1953 78.3221 62.5134C78.4489 62.8315 78.6381 63.121 78.8785 63.3648C79.1189 63.6087 79.4057 63.802 79.722 63.9333C80.0382 64.0647 80.3776 64.1314 80.72 64.1296C81.2551 64.1268 81.7753 63.9533 82.2049 63.6344C82.6346 63.3156 82.9513 62.8679 83.109 62.3566L83.196 61.6566C83.202 61.5992 83.2193 61.5435 83.2469 61.4928C83.2745 61.4421 83.3119 61.3974 83.3569 61.3612C83.4019 61.325 83.4536 61.2981 83.5091 61.2821C83.5646 61.266 83.6226 61.2611 83.68 61.2676L86.72 61.4346C86.7774 61.4377 86.8337 61.452 86.8855 61.4769C86.9374 61.5017 86.9838 61.5366 87.0222 61.5794C87.0606 61.6222 87.0901 61.6722 87.1091 61.7265C87.1281 61.7807 87.1363 61.8382 87.133 61.8956C87.119 62.1736 87.058 62.4586 87.024 62.7356C86.7635 64.3223 85.9171 65.7536 84.6521 66.7462C83.3871 67.7389 81.7957 68.2207 80.1925 68.0964C78.5893 67.9721 77.0912 67.2507 75.9943 66.0749C74.8975 64.8991 74.2818 63.3545 74.269 61.7466V51.8136C74.2616 50.1039 74.9325 48.461 76.1348 47.2452C77.337 46.0295 78.9723 45.3402 80.682 45.3286Z" fill="#343745"/>
<path fill-rule="evenodd" clip-rule="evenodd" d="M63.017 45.5072C64.2195 45.2244 65.4759 45.2701 66.6546 45.6396C67.8334 46.009 68.8911 46.6886 69.717 47.6072C70.7917 48.8813 71.3758 50.4974 71.364 52.1642L71.383 61.3302C71.4249 62.1785 71.2965 63.0265 71.0053 63.8244C70.7141 64.6222 70.2661 65.3536 69.6876 65.9755C69.1092 66.5974 68.4121 67.0971 67.6374 67.4452C66.8627 67.7933 66.0261 67.9827 65.177 68.0022C63.4617 68.0372 61.8019 67.3937 60.5584 66.2115C59.315 65.0294 58.5886 63.4041 58.537 61.6892V59.5802C58.5096 58.734 58.6551 57.8912 58.9646 57.1032C59.2741 56.3152 59.7411 55.5986 60.337 54.9972C61.6157 53.8159 63.3069 53.1836 65.047 53.2362C65.869 53.2391 66.6894 53.309 67.5 53.4452V51.4672C67.5149 51.146 67.4653 50.825 67.3542 50.5233C67.2431 50.2215 67.0727 49.9451 66.853 49.7102C66.6048 49.4944 66.3143 49.3329 66 49.2359C65.6857 49.139 65.3546 49.1088 65.028 49.1472L60.943 49.4132C60.8857 49.417 60.8282 49.4094 60.7738 49.3907C60.7194 49.3721 60.6693 49.3429 60.6263 49.3048C60.5833 49.2666 60.5484 49.2203 60.5234 49.1685C60.4985 49.1168 60.4841 49.0606 60.481 49.0032L60.353 46.6452C60.3474 46.5512 60.3721 46.4578 60.4236 46.3789C60.4752 46.3001 60.5507 46.2399 60.639 46.2072C61.4128 45.9139 62.2077 45.6799 63.017 45.5072ZM67.508 56.6622H65.248C64.8671 56.6455 64.4869 56.7074 64.1309 56.844C63.775 56.9806 63.451 57.189 63.179 57.4562C62.6477 58.0625 62.3717 58.8509 62.409 59.6562C62.409 60.1562 62.394 60.6682 62.409 61.1732C62.3654 61.8915 62.6073 62.5979 63.0821 63.1387C63.5569 63.6794 64.2261 64.0106 64.944 64.0602H65.05C65.7214 64.0357 66.3561 63.7479 66.817 63.2591C67.2779 62.7704 67.5279 62.1198 67.513 61.4482L67.508 56.6622Z" fill="#343745"/>
<path fill-rule="evenodd" clip-rule="evenodd" d="M10.6 38.8434C11.1475 38.838 11.6843 38.9955 12.1421 39.2959C12.5999 39.5963 12.9581 40.0259 13.1712 40.5303C13.3843 41.0346 13.4427 41.591 13.339 42.1286C13.2352 42.6662 12.974 43.1609 12.5885 43.5497C12.2031 43.9386 11.7107 44.2041 11.174 44.3126C10.6373 44.421 10.0805 44.3675 9.57427 44.1588C9.06806 43.9501 8.63529 43.5956 8.33095 43.1405C8.02661 42.6853 7.86442 42.1499 7.86499 41.6024C7.86523 40.8749 8.15269 40.1769 8.66487 39.6602C9.17705 39.1435 9.87251 38.85 10.6 38.8434Z" fill="#343745"/>
<path fill-rule="evenodd" clip-rule="evenodd" d="M5.142 37.0024V67.3394H0.436005V36.7104C2.00467 36.8084 3.57334 36.9058 5.142 37.0024Z" fill="#343745"/>
<path fill-rule="evenodd" clip-rule="evenodd" d="M8.17401 45.5024L12.974 45.8024V67.3314H8.17401V45.5024Z" fill="#343745"/>
<path fill-rule="evenodd" clip-rule="evenodd" d="M16.231 43.3926C16.2401 42.3697 16.4645 41.3601 16.8898 40.4297C17.315 39.4993 17.9315 38.6689 18.699 37.9926C19.4792 37.309 20.4168 36.8295 21.4278 36.5971C22.4387 36.3646 23.4916 36.3864 24.492 36.6606L25.063 36.8126C25.007 38.3873 24.951 39.9633 24.895 41.5406H22.695C21.495 41.5406 20.939 42.5246 20.939 43.6406V49.8816H24.528V54.7306H20.937V72.1546L16.231 72.4286V43.3926Z" fill="#343745"/>
<path fill-rule="evenodd" clip-rule="evenodd" d="M27.083 51.9273C27.0958 50.1156 27.7993 48.3771 29.05 47.0663C29.6528 46.4509 30.3754 45.9657 31.1731 45.6406C31.9709 45.3155 32.8268 45.1575 33.688 45.1763C35.3061 45.1537 36.869 45.7637 38.044 46.8763C39.2675 48.0176 39.9988 49.5903 40.083 51.2613V56.4713C40.0872 56.8078 40.0209 57.1415 39.8882 57.4509C39.7556 57.7602 39.5597 58.0383 39.3131 58.2673C39.0664 58.4964 38.7746 58.6712 38.4563 58.7805C38.138 58.8899 37.8003 58.9314 37.465 58.9023H31.785V60.6623C31.7615 60.9291 31.7927 61.1979 31.8767 61.4522C31.9608 61.7065 32.0959 61.9409 32.2738 62.1411C32.4517 62.3413 32.6687 62.5031 32.9114 62.6164C33.154 62.7298 33.4173 62.7924 33.685 62.8003H38.154C38.199 64.1773 38.241 65.5543 38.286 66.9303L33.637 67.6183C33.415 67.6495 33.1912 67.6662 32.967 67.6683C31.5232 67.6279 30.1532 67.0213 29.153 65.9793C27.8356 64.6569 27.0919 62.8689 27.083 61.0023V51.9273ZM33.605 49.9953C33.1209 50.0024 32.6589 50.1993 32.3185 50.5436C31.9781 50.8879 31.7865 51.3521 31.785 51.8363V54.0693H35.43V51.8363C35.4282 51.3514 35.2359 50.8865 34.8944 50.5421C34.553 50.1977 34.0899 50.0013 33.605 49.9953Z" fill="#343745"/>
<path fill-rule="evenodd" clip-rule="evenodd" d="M46.8 46.1883C47.7553 45.9088 48.7457 45.7677 49.741 45.7693C50.5928 45.744 51.4395 45.9087 52.2198 46.2514C53 46.594 53.6942 47.106 54.252 47.7503C55.2797 49.0111 55.8155 50.6017 55.76 52.2273V67.3393H52.76V52.1593C52.7739 51.753 52.7061 51.348 52.5606 50.9684C52.4151 50.5888 52.1949 50.2422 51.913 49.9493C51.2866 49.3936 50.466 49.1079 49.63 49.1543H46.8V67.3353H43.8V36.8843H46.8V46.1883Z" fill="#343745"/>
<path fill-rule="evenodd" clip-rule="evenodd" d="M93.2 67.3353H90.2V36.8843H93.2V67.3353ZM99.252 46.0883H102.752L96.952 56.0083L103.219 67.3313H99.844L93.822 56.7393C93.382 55.9593 93.408 55.8993 93.867 55.1303L99.252 46.0883Z" fill="#343745"/>
<path fill-rule="evenodd" clip-rule="evenodd" d="M125.057 45.8685C126.575 45.5936 128.14 45.7627 129.564 46.3555C129.53 47.1955 129.493 48.0325 129.464 48.8695H126.6C126.346 48.8657 126.092 48.8811 125.84 48.9155C125.067 49.0564 124.371 49.4697 123.878 50.0804C123.384 50.6911 123.126 51.4586 123.15 52.2435V67.3435H120.15V52.1105C120.132 50.666 120.609 49.2588 121.501 48.1231C122.394 46.9874 123.649 46.1917 125.057 45.8685Z" fill="#343745"/>
<path fill-rule="evenodd" clip-rule="evenodd" d="M110.538 64.5743L114.322 64.5663C114.374 65.3663 114.427 66.1663 114.48 66.9663L110.508 67.5553C110.251 67.5924 109.992 67.6115 109.733 67.6123C109.055 67.6125 108.385 67.4711 107.765 67.1973C107.145 66.9235 106.589 66.5233 106.133 66.0223C105.03 64.8136 104.421 63.2354 104.425 61.5993V51.6493C104.449 50.0743 105.092 48.572 106.215 47.4678C107.338 46.3636 108.852 45.7465 110.427 45.75C112.002 45.7536 113.512 46.3775 114.631 47.4868C115.749 48.596 116.386 50.1012 116.402 51.6763V56.6023C116.418 56.822 116.387 57.0426 116.311 57.2492C116.234 57.4558 116.114 57.6434 115.958 57.7993C115.803 57.9553 115.615 58.0758 115.409 58.1528C115.202 58.2297 114.982 58.2613 114.762 58.2453H107.423V60.9793C107.427 62.9723 108.45 64.5743 110.538 64.5743ZM110.417 48.9023C109.622 48.9133 108.862 49.2365 108.303 49.8022C107.744 50.3679 107.429 51.1308 107.427 51.9263V55.1853H113.4V51.9243C113.396 51.1309 113.081 50.3706 112.524 49.8059C111.966 49.2412 111.21 48.9169 110.417 48.9023Z" fill="#343745"/>
<path fill-rule="evenodd" clip-rule="evenodd" d="M80.682 45.7695C82.2274 45.7792 83.71 46.3828 84.8226 47.4554C85.9353 48.528 86.5928 49.9875 86.659 51.5315V52.2615L83.624 52.3415L83.601 51.5925C83.5428 50.8589 83.2098 50.1743 82.6686 49.6755C82.1274 49.1768 81.4179 48.9007 80.682 48.9025C79.8904 48.9158 79.1354 49.2381 78.5783 49.8005C78.0211 50.3629 77.7059 51.1209 77.7 51.9125V61.5125C77.6793 62.2378 77.9242 62.9456 78.3887 63.503C78.8532 64.0604 79.5052 64.429 80.2223 64.5396C80.9394 64.6501 81.6721 64.4949 82.2829 64.1033C82.8936 63.7116 83.3403 63.1103 83.539 62.4125L83.626 61.7125C84.649 61.7665 85.672 61.8235 86.695 61.8765L86.595 62.6825C86.3442 64.0728 85.6171 65.3322 84.5386 66.2447C83.4601 67.1571 82.0976 67.6655 80.685 67.6825C79.1056 67.6849 77.5894 67.062 76.4679 65.9499C75.3465 64.8378 74.7108 63.3269 74.7 61.7475V51.8135C74.6918 51.0228 74.8405 50.2382 75.1374 49.5053C75.4344 48.7723 75.8737 48.1055 76.43 47.5435C76.9863 46.9814 77.6485 46.5352 78.3784 46.2307C79.1082 45.9262 79.8912 45.7695 80.682 45.7695Z" fill="#343745"/>
<path fill-rule="evenodd" clip-rule="evenodd" d="M60.787 46.6175C62.2717 45.9798 63.8891 45.7125 65.5 45.8385C67.0276 46.0337 68.4284 46.7893 69.4305 47.9587C70.4327 49.1281 70.9649 50.6279 70.924 52.1675L70.943 61.6835C70.9307 62.4717 70.7624 63.2496 70.4479 63.9724C70.1334 64.6953 69.6789 65.3487 69.1106 65.8949C68.5423 66.4412 67.8714 66.8696 67.1367 67.1552C66.402 67.4409 65.6181 67.5783 64.83 67.5595C63.2892 67.5105 61.8251 66.8758 60.736 65.7848C59.647 64.6937 59.0151 63.2284 58.969 61.6875V59.5805C58.969 55.9475 61.531 53.6805 65.044 53.6805C66.0139 53.6855 66.9813 53.7823 67.933 53.9695V51.4695C67.9678 51.0828 67.9144 50.6932 67.7768 50.3302C67.6391 49.9672 67.4209 49.6401 67.1385 49.3737C66.8561 49.1072 66.5169 48.9084 66.1464 48.7921C65.776 48.6759 65.384 48.6452 65 48.7025L60.915 48.9725C60.874 48.1895 60.828 47.4025 60.787 46.6175ZM67.942 56.2175H65.248C64.7983 56.1972 64.3496 56.2736 63.932 56.4415C63.5143 56.6094 63.1375 56.8648 62.827 57.1906C62.5164 57.5164 62.2793 57.905 62.1317 58.3302C61.984 58.7554 61.9292 59.2073 61.971 59.6555V61.0285C61.971 62.8425 63.096 64.5735 65.063 64.4975C65.8488 64.4716 66.5927 64.1366 67.1329 63.5653C67.6732 62.994 67.9661 62.2325 67.948 61.4465L67.942 56.2175Z" fill="#343745"/>
<path fill-rule="evenodd" clip-rule="evenodd" d="M1.18201 37.5083L4.39701 37.7083V66.5853H1.18201V37.5083Z" fill="#343745"/>
<path fill-rule="evenodd" clip-rule="evenodd" d="M8.96701 46.3022L12.179 46.5022V66.5852H8.96701V46.3022Z" fill="#343745"/>
<path fill-rule="evenodd" clip-rule="evenodd" d="M10.6 39.5894C10.9995 39.5862 11.391 39.7019 11.7247 39.9216C12.0584 40.1413 12.3193 40.4552 12.4742 40.8235C12.6292 41.1917 12.6712 41.5977 12.595 41.9899C12.5188 42.3821 12.3277 42.7428 12.0462 43.0263C11.7646 43.3097 11.4051 43.503 11.0134 43.5818C10.6217 43.6606 10.2154 43.6211 9.84619 43.4686C9.47693 43.316 9.16133 43.0572 8.93946 42.7249C8.71758 42.3926 8.59944 42.002 8.60002 41.6024C8.5983 41.3387 8.64877 41.0772 8.74851 40.8331C8.84825 40.5889 8.9953 40.3669 9.18119 40.1798C9.36708 39.9927 9.58813 39.8442 9.83164 39.7429C10.0751 39.6416 10.3363 39.5894 10.6 39.5894Z" fill="#343745"/>
<path fill-rule="evenodd" clip-rule="evenodd" d="M16.976 43.3923C16.976 39.8283 20.192 36.2923 24.299 37.3863L24.179 40.7863H22.693C22.3344 40.7867 21.9799 40.8636 21.6533 41.0117C21.3267 41.1599 21.0354 41.376 20.7989 41.6455C20.5623 41.9151 20.3859 42.232 20.2814 42.5751C20.177 42.9182 20.1468 43.2796 20.193 43.6353V50.6293H23.78V53.9733H20.192V71.4463L16.976 71.6333V43.3923Z" fill="#343745"/>
<path fill-rule="evenodd" clip-rule="evenodd" d="M27.828 51.9273C27.809 51.1459 27.9467 50.3686 28.2328 49.6412C28.5188 48.9138 28.9476 48.251 29.4938 47.6918C30.04 47.1327 30.6925 46.6885 31.413 46.3855C32.1335 46.0824 32.9074 45.9266 33.689 45.9273C35.1344 45.9245 36.5258 46.4758 37.577 47.4679C38.6282 48.4599 39.2591 49.8171 39.34 51.2603V56.4703C39.34 57.4553 38.711 58.1443 37.466 58.1443H31.04V60.6583C31.014 61.0239 31.0627 61.391 31.1832 61.7372C31.3037 62.0834 31.4934 62.4014 31.7408 62.6719C31.9882 62.9424 32.288 63.1597 32.6221 63.3105C32.9562 63.4613 33.3175 63.5426 33.684 63.5493H37.435L37.522 66.2803L33.522 66.8693C30.66 67.2923 27.822 64.3973 27.822 61.0013L27.828 51.9273ZM33.606 49.2433C34.2901 49.2483 34.9444 49.524 35.4258 50.0101C35.9072 50.4962 36.1766 51.1531 36.175 51.8373V54.8223H31.04V51.8363C31.0384 51.1528 31.3072 50.4965 31.7877 50.0105C32.2683 49.5245 32.9216 49.2483 33.605 49.2423L33.606 49.2433Z" fill="#343745"/>
<path fill-rule="evenodd" clip-rule="evenodd" d="M46.053 47.2712C47.2156 46.7659 48.4714 46.5107 49.739 46.5222C50.4865 46.4856 51.2324 46.6223 51.9183 46.9217C52.6042 47.2212 53.2116 47.6751 53.693 48.2482C54.6085 49.3665 55.0785 50.7835 55.013 52.2272V66.5852H53.5V52.1592C53.5264 51.6491 53.4434 51.1393 53.2566 50.6639C53.0699 50.1886 52.7837 49.7586 52.4172 49.4028C52.0508 49.0471 51.6125 48.7737 51.1318 48.6012C50.6511 48.4286 50.1391 48.3607 49.63 48.4022H46.053V66.5852H44.545V37.6382H46.053V47.2712Z" fill="#343745"/>
<path fill-rule="evenodd" clip-rule="evenodd" d="M99.682 46.8342H101.453L96.093 56.0022L101.954 66.5872H100.276L94.57 56.5412C94.243 55.9662 94.27 55.9132 94.608 55.3412L99.682 46.8342ZM92.46 66.5852H90.951V37.6382H92.46V66.5852Z" fill="#343745"/>
<path fill-rule="evenodd" clip-rule="evenodd" d="M128.8 46.8802C127.716 46.4368 126.524 46.3286 125.378 46.5698C124.232 46.811 123.184 47.3905 122.371 48.2332C121.405 49.2912 120.878 50.6769 120.897 52.1092V66.5852H122.4V52.2432C122.383 51.7111 122.473 51.1811 122.664 50.6841C122.855 50.1872 123.144 49.7334 123.512 49.3493C123.881 48.9652 124.322 48.6585 124.811 48.4473C125.3 48.2361 125.826 48.1246 126.358 48.1192H128.742L128.8 46.8802Z" fill="#343745"/>
<path fill-rule="evenodd" clip-rule="evenodd" d="M113.626 65.3195H110.488C108.514 65.3195 106.682 63.9085 106.682 60.9795V57.4955H114.766C115.349 57.4955 115.666 57.2485 115.666 56.6055V51.6805C115.651 50.3021 115.094 48.9851 114.115 48.0145C113.136 47.0439 111.814 46.4977 110.436 46.4942C109.057 46.4906 107.733 47.03 106.749 47.9955C105.765 48.9611 105.201 50.2752 105.179 51.6535V61.6025C105.179 64.3825 107.24 67.2805 110.404 66.8135L113.698 66.3265L113.626 65.3195ZM110.417 48.1475C111.411 48.1593 112.361 48.5624 113.06 49.2693C113.759 49.9762 114.152 50.9302 114.153 51.9245V55.9375H106.682V51.9245C106.68 50.9293 107.071 49.9736 107.771 49.2659C108.471 48.5583 109.422 48.1562 110.417 48.1475Z" fill="#343745"/>
<path fill-rule="evenodd" clip-rule="evenodd" d="M80.682 46.5235C82.0304 46.5286 83.3255 47.0511 84.2999 47.9831C85.2744 48.9152 85.854 50.1857 85.919 51.5325L84.346 51.5705C84.2838 50.6416 83.8706 49.7711 83.1902 49.1356C82.5097 48.5001 81.6131 48.1472 80.682 48.1485C79.6909 48.1601 78.7442 48.5618 78.0471 49.2665C77.35 49.9713 76.9587 50.9223 76.958 51.9135V61.5135C76.9342 62.429 77.2493 63.321 77.8429 64.0184C78.4365 64.7157 79.2668 65.1692 80.1744 65.2918C81.0819 65.4145 82.0027 65.1975 82.7601 64.6827C83.5175 64.1679 84.0581 63.3915 84.278 62.5025L85.853 62.5865C85.6262 63.797 84.9869 64.8914 84.0439 65.6835C83.1009 66.4755 81.9125 66.9162 80.681 66.9305C79.9974 66.9348 79.3196 66.8041 78.6865 66.5461C78.0535 66.2881 77.4775 65.9078 76.9915 65.427C76.5055 64.9461 76.1192 64.3742 75.8545 63.7438C75.5898 63.1135 75.452 62.4372 75.449 61.7535V51.8135C75.437 51.1204 75.5637 50.4318 75.8217 49.7882C76.0798 49.1447 76.4639 48.5593 76.9514 48.0665C77.439 47.5736 78.0202 47.1832 78.6609 46.9182C79.3016 46.6532 79.9887 46.519 80.682 46.5235Z" fill="#343745"/>
<path fill-rule="evenodd" clip-rule="evenodd" d="M61.558 47.1354L61.614 48.1774L64.954 47.9564C65.4386 47.8977 65.9303 47.9465 66.394 48.0992C66.8577 48.2518 67.2821 48.5047 67.6371 48.8398C67.9921 49.1748 68.2691 49.5839 68.4483 50.0381C68.6275 50.4922 68.7045 50.9801 68.674 51.4674L68.682 54.8974C67.494 54.5978 66.2742 54.4423 65.049 54.4344C61.957 54.4344 59.719 56.2144 59.719 59.5804V61.6874C59.7587 63.0557 60.3286 64.3551 61.3083 65.3112C62.2881 66.2673 63.6011 66.8052 64.97 66.8114C65.6514 66.8222 66.3283 66.6978 66.9613 66.4454C67.5943 66.1929 68.171 65.8174 68.658 65.3406C69.1449 64.8638 69.5325 64.2951 69.7982 63.6675C70.0639 63.0399 70.2025 62.3659 70.206 61.6844L70.188 52.1684C70.2057 51.3846 70.06 50.6057 69.7601 49.8814C69.4602 49.1571 69.0126 48.5032 68.446 47.9614C66.52 46.1804 63.853 46.2834 61.558 47.1354ZM68.682 55.4684L68.693 61.4444C68.7061 61.9438 68.6182 62.4408 68.4348 62.9055C68.2513 63.3703 67.9759 63.7932 67.6251 64.149C67.2744 64.5048 66.8554 64.7862 66.3933 64.9763C65.9313 65.1664 65.4356 65.2613 64.936 65.2554C63.236 65.2554 61.227 63.9844 61.227 61.0334V59.6604C61.1764 59.1119 61.2443 58.5589 61.4261 58.0389C61.6079 57.5189 61.8993 57.0441 62.2807 56.6466C62.662 56.249 63.1243 55.9381 63.6362 55.7348C64.1482 55.5315 64.6978 55.4407 65.248 55.4684H68.682Z" fill="#343745"/>
<path d="M130 0H0V2H130V0Z" fill="#343745"/>
</svg>
