<svg width="130" height="76" viewBox="0 0 130 76" fill="none" xmlns="http://www.w3.org/2000/svg">
<path fill-rule="evenodd" clip-rule="evenodd" d="M57.437 67.8985H58.829V45.2215H57.437V67.8985ZM64.974 75.9435C61.0241 75.9429 57.163 74.7711 53.879 72.5762C50.595 70.3813 48.0356 67.2619 46.5244 63.6124C45.0133 59.9629 44.6182 55.9473 45.3891 52.0733C46.1601 48.1993 48.0625 44.641 50.8557 41.8481C53.649 39.0553 57.2077 37.1534 61.0818 36.3831C64.9559 35.6127 68.9714 36.0084 72.6207 37.5201C76.2699 39.0318 79.3889 41.5917 81.5833 44.876C83.7778 48.1603 84.949 52.0216 84.949 55.9715C84.9489 58.5945 84.4321 61.1918 83.4282 63.615C82.4243 66.0383 80.9529 68.24 79.098 70.0946C77.2431 71.9492 75.0411 73.4203 72.6177 74.4238C70.1943 75.4274 67.597 75.9438 64.974 75.9435ZM51.73 53.4795C51.754 52.0375 54.23 51.9955 54.23 53.4125L54.256 54.6435H56.147V53.5065C56.267 49.7115 49.763 49.7145 49.811 53.4125V59.9435C49.763 63.6435 56.273 63.7435 56.154 59.9435V58.5785H54.232V60.0435C54.232 61.4615 51.757 61.4855 51.732 60.0435V53.4135L51.73 53.4795ZM62.55 52.0015L62.545 50.9625H59.83V52.3795L60.886 52.3855V61.0505L60 61.0435V62.4655H62.81V53.2215V53.2865C62.832 51.9175 65.11 51.8745 65.11 53.2215V62.4695H68.245V61.0515H67.019V53.3135C67.0513 52.8433 66.9507 52.3734 66.7286 51.9577C66.5064 51.542 66.1719 51.1971 65.763 50.9625C65.4441 50.818 65.096 50.7493 64.7461 50.7618C64.3961 50.7743 64.0538 50.8676 63.746 51.0345C63.2828 51.2681 62.875 51.5982 62.55 52.0025V52.0015ZM76.74 59.9155C76.7087 60.3862 76.8103 60.8562 77.033 61.2721C77.2558 61.6879 77.5908 62.0328 78 62.2675C78.325 62.4002 78.672 62.4711 79.023 62.4765C79.336 62.4765 80.868 62.4765 80.868 62.4765V61.0515C80.868 61.0515 80.094 61.0415 79.685 61.0455C79.552 61.0595 79.4176 61.0441 79.2912 61.0004C79.1648 60.9568 79.0495 60.8859 78.9534 60.7928C78.8574 60.6998 78.783 60.5868 78.7354 60.4618C78.6878 60.3368 78.6682 60.2029 78.678 60.0695V52.3935V52.3815H80.527V50.9855H78.67L78.677 50.9625V47.9845H76.742L76.74 59.9155ZM73.258 58.5785V60.0435C73.258 61.4615 70.785 61.4855 70.758 60.0435V56.9925H74.82C74.8664 56.9927 74.9123 56.9837 74.9552 56.966C74.9981 56.9484 75.037 56.9225 75.0699 56.8898C75.1028 56.8571 75.1289 56.8183 75.1468 56.7755C75.1646 56.7328 75.1739 56.6869 75.174 56.6405V53.5025C75.294 49.7075 68.79 49.7105 68.838 53.4085V59.9435C68.79 63.6435 75.3 63.7435 75.181 59.9435V58.5785H73.258ZM70.758 53.4045C70.788 51.9835 73.258 51.9955 73.258 53.4135L73.251 55.5515H70.761L70.758 53.4045Z" fill="#343745"/>
<path d="M130 0H0V2H130V0Z" fill="#343745"/>
</svg>
