<svg width="42" height="28" viewBox="0 0 42 28" fill="none" xmlns="http://www.w3.org/2000/svg">
<path d="M39.621 3.95999C40.547 4.04099 40.537 5.10199 39.221 6.34699C38.811 6.74699 39.069 7.58699 38.257 8.10499C37.6809 8.55133 37.136 9.03646 36.626 9.55698C35.826 10.5 35.75 11.357 34.365 14.405C33.265 16.879 34.504 16.105 35.481 16.405C36.19 16.623 36.221 16.64 36.492 16.734C39.792 17.887 43.446 20.724 41.405 24.679C40.893 25.671 39.65 26.003 38.546 26.565C37.5161 27.0346 36.4585 27.4406 35.379 27.781C32.256 28.597 27.472 26.981 25.47 25.087C23.98 23.676 24.77 19.504 25.193 18.97C25.2002 18.5164 25.2335 18.0637 25.293 17.614C25.993 14.636 28.259 11.591 30.593 8.72499C31.328 8.03072 32.1431 7.42647 33.021 6.92499C34.285 5.91699 36.621 4.18199 37.585 4.24099C38.391 4.28899 39.165 3.92299 39.613 3.96299L39.621 3.95999ZM16.395 1.09999C17.11 1.28699 15.295 3.71799 12.838 5.94199C11.9752 6.75521 11.242 7.69578 10.664 8.73099C11.764 10.025 10.164 10.843 10.173 13.425C11.801 13.6701 13.3452 14.3067 14.673 15.28C15.581 15.63 20.589 18.78 16.881 22.637C15.357 27.109 8.338 28.581 3.42 26.068C2.58968 25.6566 1.8926 25.0188 1.4092 24.2283C0.925795 23.4377 0.67578 22.5266 0.688 21.6C0.688 21.6 -1.051 18.042 1 16.1C1.62597 14.8259 2.16585 13.5113 2.616 12.165C3.23478 10.3855 4.37752 8.8349 5.894 7.71699C5.894 7.71699 7.808 5.19999 8.806 3.97399C10.514 1.92399 14.5 0.609985 16.395 1.09999ZM38.487 24.685C34.826 25.719 33.825 24.047 33.079 25.978C34.97 26.0155 36.8391 25.5679 38.508 24.678L38.487 24.684V24.685ZM9.287 23.653C9.10229 23.9772 8.84323 24.253 8.53114 24.4575C8.21905 24.6621 7.86285 24.7897 7.49184 24.8297C7.12083 24.8697 6.74562 24.8211 6.39708 24.6878C6.04854 24.5545 5.73662 24.3404 5.487 24.063C4.66231 24.1955 3.8168 24.0738 3.063 23.714C6.278 27.098 12.363 25.74 14.254 23.814C12.6283 24.3147 10.8819 24.258 9.292 23.653H9.287ZM38.751 21.608C38.574 21.495 37.906 23.008 37.893 23.255C37.88 23.502 39.968 22.389 38.756 21.608H38.751ZM30.467 19.287C29.206 22.717 32.306 23.257 32.516 23.187C30.8 22.298 30.405 20.716 31.153 19.587L30.467 19.287ZM3.214 19.067C2.8542 19.7022 2.59066 20.3874 2.432 21.1C2.95075 21.6389 3.57326 22.0672 4.262 22.359C4.771 21.537 4.6 19.535 3.219 19.067H3.214ZM28.3 21.21C28.491 20.5498 28.638 19.8777 28.74 19.198C28.4209 19.4116 28.1969 19.7403 28.1149 20.1154C28.0329 20.4905 28.0992 20.8827 28.3 21.21ZM35.855 18.918C34.935 18.954 36.143 20.006 35.526 21.589C36.0513 21.1201 36.632 20.7171 37.255 20.389C37.2741 20.1971 37.2515 20.0033 37.1889 19.8209C37.1263 19.6385 37.0252 19.4717 36.8923 19.3319C36.7594 19.1921 36.598 19.0826 36.419 19.0108C36.24 18.9391 36.0476 18.9067 35.855 18.916V18.918ZM11.865 16.218C12.838 16.461 15.614 17.545 14.297 20.461C16.011 18.984 15.046 16.53 11.865 16.218Z" fill="#FF7800"/>
</svg>
