<svg width="603" height="582" viewBox="0 0 603 582" fill="none" xmlns="http://www.w3.org/2000/svg">
<path d="M296.072 39.59H286.05C136.455 39.59 15.184 160.861 15.184 310.456C15.184 460.051 136.455 581.322 286.05 581.322H296.072C445.667 581.322 566.938 460.051 566.938 310.456C566.938 160.861 445.667 39.59 296.072 39.59Z" stroke="#CCD4DE" stroke-dasharray="8 8"/>
<path d="M297.902 162.01H297.901C215.7 162.01 149.063 228.647 149.063 310.848V310.849C149.063 393.05 215.7 459.687 297.901 459.687H297.902C380.103 459.687 446.74 393.05 446.74 310.849V310.848C446.74 228.647 380.103 162.01 297.902 162.01Z" stroke="#CCD4DE" stroke-dasharray="8 8"/>
<path d="M298.105 250.559H297.832C264.695 250.559 237.832 277.422 237.832 310.559V310.832C237.832 343.969 264.695 370.832 297.832 370.832H298.105C331.242 370.832 358.105 343.969 358.105 310.832V310.559C358.105 277.422 331.242 250.559 298.105 250.559Z" fill="#006CFA"/>
<path d="M285.082 296.743C285.082 296.255 285.187 295.773 285.391 295.329C285.595 294.886 285.892 294.492 286.263 294.174C286.634 293.857 287.068 293.623 287.538 293.489C288.007 293.356 288.5 293.325 288.982 293.4L313.682 297.2C314.303 297.297 314.862 297.631 315.243 298.131C315.623 298.631 315.795 299.259 315.724 299.883C315.652 300.508 315.341 301.08 314.857 301.481C314.372 301.881 313.752 302.079 313.125 302.032L288.211 300.116C287.36 300.052 286.565 299.669 285.985 299.044C285.404 298.418 285.082 297.596 285.082 296.743Z" fill="white"/>
<path d="M282.723 324.536C282.722 323.672 283.05 322.84 283.641 322.208C284.231 321.577 285.039 321.194 285.901 321.136L315.51 319.161C316.137 319.121 316.756 319.325 317.235 319.732C317.715 320.138 318.018 320.715 318.08 321.341C318.143 321.966 317.96 322.592 317.57 323.085C317.181 323.579 316.615 323.902 315.992 323.986L286.577 327.908C286.096 327.973 285.607 327.934 285.143 327.794C284.678 327.654 284.249 327.417 283.884 327.097C283.519 326.778 283.227 326.384 283.026 325.942C282.826 325.501 282.723 325.021 282.723 324.536Z" fill="white"/>
<path d="M281.311 307.221C280.854 307.202 280.398 307.275 279.969 307.437C279.541 307.599 279.15 307.845 278.82 308.162C278.49 308.479 278.227 308.859 278.047 309.28C277.868 309.701 277.775 310.153 277.775 310.611C277.775 311.069 277.868 311.521 278.047 311.942C278.227 312.363 278.49 312.743 278.82 313.06C279.15 313.377 279.541 313.623 279.969 313.785C280.398 313.947 280.854 314.02 281.311 314.001L303.72 313.067C304.352 313.038 304.949 312.767 305.387 312.31C305.824 311.852 306.068 311.243 306.068 310.611C306.068 309.978 305.824 309.369 305.387 308.911C304.949 308.454 304.352 308.183 303.72 308.154L281.311 307.221Z" fill="white"/>
<path d="M410.798 159.166H410.579C384.069 159.166 362.579 180.656 362.579 207.166V207.385C362.579 233.895 384.069 255.385 410.579 255.385H410.798C437.308 255.385 458.798 233.895 458.798 207.385V207.166C458.798 180.656 437.308 159.166 410.798 159.166Z" fill="#E43D30"/>
<path d="M392.285 207.341C392.288 205.538 391.631 203.796 390.437 202.444C389.243 201.093 387.596 200.225 385.806 200.005C384.571 204.817 384.571 209.864 385.806 214.676C387.597 214.458 389.245 213.591 390.439 212.24C391.633 210.888 392.29 209.145 392.285 207.341Z" fill="white"/>
<path d="M396.57 205.024C396.11 205.021 395.659 205.154 395.275 205.407C394.891 205.661 394.59 206.022 394.411 206.446C394.233 206.87 394.184 207.338 394.271 207.79C394.358 208.242 394.578 208.657 394.902 208.984C395.225 209.312 395.639 209.535 396.09 209.627C396.541 209.719 397.009 209.675 397.434 209.501C397.86 209.327 398.225 209.03 398.482 208.648C398.739 208.267 398.877 207.817 398.879 207.357V207.341C398.881 207.037 398.823 206.735 398.708 206.454C398.593 206.172 398.423 205.916 398.208 205.7C397.993 205.485 397.738 205.314 397.457 205.198C397.176 205.082 396.874 205.023 396.57 205.024Z" fill="white"/>
<path d="M428.512 207.341C428.509 209.144 429.167 210.886 430.36 212.238C431.554 213.589 433.201 214.457 434.991 214.677C436.226 209.865 436.226 204.818 434.991 200.006C433.202 200.228 431.557 201.097 430.364 202.448C429.17 203.798 428.512 205.539 428.512 207.341Z" fill="white"/>
<path d="M424.213 205.025C423.753 205.019 423.302 205.149 422.916 205.4C422.53 205.65 422.228 206.01 422.046 206.433C421.865 206.855 421.813 207.322 421.897 207.774C421.982 208.226 422.198 208.643 422.519 208.973C422.841 209.302 423.253 209.528 423.703 209.623C424.153 209.718 424.621 209.677 425.048 209.506C425.474 209.334 425.841 209.04 426.1 208.661C426.36 208.281 426.501 207.833 426.506 207.373V207.341C426.505 206.731 426.264 206.146 425.835 205.713C425.405 205.279 424.823 205.032 424.213 205.025Z" fill="white"/>
<path d="M410.343 225.568C408.54 225.57 406.8 226.232 405.453 227.43C404.105 228.628 403.243 230.278 403.03 232.068C407.826 233.307 412.859 233.307 417.655 232.068C417.442 230.278 416.58 228.628 415.232 227.43C413.885 226.233 412.146 225.57 410.343 225.568Z" fill="white"/>
<path d="M410.342 218.956C409.882 218.953 409.431 219.086 409.047 219.339C408.663 219.593 408.362 219.954 408.183 220.378C408.005 220.802 407.956 221.27 408.043 221.722C408.13 222.174 408.35 222.589 408.673 222.916C408.997 223.243 409.411 223.467 409.862 223.559C410.312 223.651 410.781 223.607 411.206 223.433C411.632 223.258 411.997 222.962 412.254 222.58C412.511 222.199 412.649 221.749 412.651 221.289V221.272C412.652 220.659 412.409 220.07 411.976 219.636C411.543 219.202 410.955 218.957 410.342 218.956Z" fill="white"/>
<path d="M410.343 189.228C412.146 189.226 413.886 188.564 415.233 187.366C416.581 186.168 417.443 184.518 417.656 182.728C412.86 181.49 407.827 181.49 403.031 182.728C403.244 184.518 404.106 186.168 405.454 187.365C406.801 188.563 408.54 189.226 410.343 189.228Z" fill="white"/>
<path d="M410.342 191.207C409.884 191.206 409.435 191.34 409.053 191.594C408.672 191.848 408.374 192.209 408.197 192.632C408.021 193.055 407.974 193.521 408.063 193.971C408.151 194.42 408.371 194.834 408.695 195.158C409.018 195.483 409.431 195.704 409.881 195.794C410.33 195.884 410.796 195.838 411.22 195.663C411.643 195.488 412.005 195.191 412.26 194.81C412.515 194.429 412.651 193.981 412.651 193.523C412.652 192.91 412.409 192.321 411.976 191.887C411.543 191.453 410.955 191.208 410.342 191.207Z" fill="white"/>
<path d="M423.171 220.211C421.899 221.487 421.138 223.183 421.028 224.981C420.919 226.779 421.47 228.555 422.578 229.976C426.848 227.447 430.406 223.877 432.922 219.599C431.499 218.501 429.725 217.958 427.931 218.071C426.138 218.184 424.446 218.944 423.171 220.211Z" fill="white"/>
<path d="M418.504 215.53C418.179 215.854 417.958 216.267 417.868 216.716C417.778 217.166 417.823 217.632 417.998 218.056C418.173 218.48 418.47 218.842 418.851 219.097C419.233 219.352 419.681 219.488 420.14 219.488C420.598 219.488 421.046 219.352 421.428 219.097C421.809 218.842 422.106 218.48 422.281 218.056C422.456 217.632 422.501 217.166 422.411 216.716C422.321 216.267 422.1 215.854 421.775 215.53C421.338 215.102 420.751 214.862 420.14 214.862C419.528 214.862 418.941 215.102 418.504 215.53Z" fill="white"/>
<path d="M397.561 194.52C398.831 193.244 399.593 191.55 399.705 189.753C399.818 187.956 399.272 186.18 398.17 184.756C393.901 187.285 390.343 190.855 387.827 195.132C389.244 196.236 391.017 196.784 392.81 196.671C394.603 196.558 396.293 195.793 397.561 194.52Z" fill="white"/>
<path d="M398.956 195.92C398.631 196.244 398.41 196.657 398.32 197.106C398.23 197.556 398.275 198.022 398.45 198.446C398.625 198.87 398.922 199.232 399.303 199.487C399.685 199.742 400.133 199.878 400.591 199.878C401.05 199.878 401.498 199.742 401.88 199.487C402.261 199.232 402.558 198.87 402.733 198.446C402.908 198.022 402.953 197.556 402.863 197.106C402.773 196.657 402.552 196.244 402.227 195.92C401.79 195.492 401.203 195.252 400.591 195.252C399.98 195.252 399.393 195.492 398.956 195.92Z" fill="white"/>
<path d="M423.156 194.487C424.424 195.761 426.114 196.526 427.907 196.638C429.7 196.751 431.473 196.203 432.89 195.098C430.374 190.821 426.815 187.251 422.546 184.722C421.444 186.146 420.898 187.922 421.011 189.72C421.123 191.517 421.885 193.211 423.156 194.487Z" fill="white"/>
<path d="M421.76 199.186C422.085 198.862 422.306 198.449 422.396 198C422.486 197.55 422.441 197.084 422.266 196.66C422.091 196.236 421.794 195.874 421.413 195.619C421.031 195.364 420.583 195.228 420.124 195.228C419.666 195.228 419.218 195.364 418.836 195.619C418.455 195.874 418.158 196.236 417.983 196.66C417.808 197.084 417.763 197.55 417.853 198C417.943 198.449 418.164 198.862 418.489 199.186C418.924 199.618 419.512 199.86 420.124 199.86C420.737 199.86 421.325 199.618 421.76 199.186Z" fill="white"/>
<path d="M397.545 220.195C396.277 218.922 394.587 218.156 392.794 218.044C391.001 217.931 389.228 218.479 387.811 219.584C390.32 223.86 393.873 227.43 398.138 229.96C399.242 228.538 399.791 226.763 399.682 224.966C399.573 223.169 398.813 221.473 397.545 220.195Z" fill="white"/>
<path d="M398.94 215.496C398.615 215.82 398.394 216.233 398.304 216.682C398.214 217.132 398.259 217.598 398.434 218.022C398.609 218.446 398.906 218.808 399.287 219.063C399.669 219.318 400.117 219.454 400.575 219.454C401.034 219.454 401.482 219.318 401.864 219.063C402.245 218.808 402.542 218.446 402.717 218.022C402.892 217.598 402.937 217.132 402.847 216.682C402.757 216.233 402.536 215.82 402.211 215.496C401.774 215.068 401.187 214.828 400.575 214.828C399.964 214.828 399.377 215.068 398.94 215.496Z" fill="white"/>
<path d="M182.273 261.585C204.415 261.585 222.364 243.636 222.364 221.494C222.364 199.352 204.415 181.403 182.273 181.403C160.131 181.403 142.182 199.352 142.182 221.494C142.182 243.636 160.131 261.585 182.273 261.585Z" fill="black"/>
<path d="M169.736 205.525H166.322V237.598H169.736V205.525Z" fill="white"/>
<path d="M198.618 234.357H166.545V237.771H198.618V234.357Z" fill="white"/>
<path d="M195.746 221.435L199.16 225.118V237.696H195.746V221.435Z" fill="white"/>
<path d="M199.16 218.213L195.746 214.873V205.455H199.16V218.213Z" fill="white"/>
<path d="M166.417 205.422H178.995L182.409 208.837H166.417V205.422Z" fill="white"/>
<path d="M186.232 205.422H198.989V208.836H189.56L186.232 205.422Z" fill="white"/>
<path d="M282.462 510.66C309.032 510.66 330.571 489.121 330.571 462.551C330.571 435.981 309.032 414.442 282.462 414.442C255.892 414.442 234.353 435.981 234.353 462.551C234.353 489.121 255.892 510.66 282.462 510.66Z" fill="white"/>
<path d="M282.462 510.159C308.755 510.159 330.07 488.844 330.07 462.551C330.07 436.258 308.755 414.943 282.462 414.943C256.169 414.943 234.854 436.258 234.854 462.551C234.854 488.844 256.169 510.159 282.462 510.159Z" stroke="#F2F4F7"/>
<path d="M302.569 462.417C302.572 461.024 302.454 459.634 302.216 458.262H282.924V466.135H293.97C293.744 467.393 293.265 468.592 292.562 469.66C291.86 470.728 290.948 471.643 289.882 472.349V477.46H296.473C300.345 473.9 302.569 468.635 302.569 462.417Z" fill="#4285F4"/>
<path d="M282.925 482.4C287.908 482.54 292.756 480.774 296.482 477.462L289.891 472.351C288.304 473.368 286.507 474.009 284.635 474.227C282.763 474.445 280.866 474.233 279.088 473.608C277.311 472.982 275.699 471.96 274.375 470.619C273.052 469.277 272.051 467.652 271.45 465.866H264.65V471.134C266.353 474.521 268.963 477.368 272.19 479.357C275.418 481.347 279.134 482.4 282.925 482.4Z" fill="#34A853"/>
<path d="M271.442 465.868C270.585 463.328 270.585 460.577 271.442 458.037V452.77H264.649C263.218 455.62 262.474 458.764 262.474 461.953C262.474 465.142 263.218 468.286 264.649 471.136L271.442 465.868Z" fill="#FBBC04"/>
<path d="M282.925 449.59C285.841 449.543 288.659 450.644 290.77 452.656L296.609 446.818C292.906 443.344 288.002 441.437 282.925 441.497C279.133 441.496 275.415 442.55 272.188 444.541C268.961 446.532 266.35 449.381 264.649 452.77L271.441 458.038C272.232 455.606 273.765 453.483 275.825 451.968C277.885 450.453 280.368 449.621 282.925 449.59Z" fill="#EA4335"/>
<path d="M232.826 96.218C259.396 96.218 280.935 74.6789 280.935 48.109C280.935 21.5391 259.396 0 232.826 0C206.256 0 184.717 21.5391 184.717 48.109C184.717 74.6789 206.256 96.218 232.826 96.218Z" fill="white"/>
<path d="M232.826 95.717C259.119 95.717 280.434 74.4022 280.434 48.109C280.434 21.8158 259.119 0.500977 232.826 0.500977C206.533 0.500977 185.218 21.8158 185.218 48.109C185.218 74.4022 206.533 95.717 232.826 95.717Z" stroke="#F2F4F7"/>
<path d="M217.202 57.5679L218.642 58.3999L234.693 30.5999L233.253 29.7679L217.202 57.5679Z" fill="#E535AB"/>
<path d="M249.117 55.3459H217.017V57.0099H249.117V55.3459Z" fill="#E535AB"/>
<path d="M217.509 56.281L233.566 65.552L234.398 64.111L218.341 54.84L217.509 56.281Z" fill="#E535AB"/>
<path d="M231.84 32.118L247.897 41.389L248.729 39.948L232.672 30.677L231.84 32.118Z" fill="#E535AB"/>
<path d="M217.514 39.942L218.346 41.383L234.404 32.112L233.572 30.671L217.514 39.942Z" fill="#E535AB"/>
<path d="M231.548 30.5979L247.599 58.3979L249.04 57.5659L232.989 29.7679L231.548 30.5979Z" fill="#E535AB"/>
<path d="M219.677 38.838H218.013V57.38H219.677V38.838Z" fill="#E535AB"/>
<path d="M248.323 38.838H246.659V57.38H248.323V38.838Z" fill="#E535AB"/>
<path d="M232.944 63.588L233.671 64.847L247.637 56.784L246.91 55.525L232.944 63.588Z" fill="#E535AB"/>
<path d="M250.516 57.92C250.17 58.5196 249.654 59.0031 249.033 59.3095C248.413 59.6158 247.715 59.7312 247.029 59.6411C246.342 59.551 245.698 59.2594 245.178 58.8032C244.657 58.3469 244.283 57.7466 244.104 57.078C243.925 56.4095 243.947 55.7027 244.17 55.0472C244.392 54.3916 244.804 53.8167 245.353 53.3951C245.902 52.9734 246.563 52.7241 247.254 52.6785C247.945 52.6329 248.633 52.7932 249.233 53.139C249.631 53.3687 249.98 53.6745 250.26 54.0391C250.54 54.4036 250.746 54.8198 250.865 55.2638C250.984 55.7077 251.014 56.1708 250.955 56.6266C250.895 57.0823 250.746 57.5218 250.516 57.92Z" fill="#E535AB"/>
<path d="M221.843 41.795C221.497 42.3946 220.981 42.8781 220.36 43.1845C219.74 43.4908 219.042 43.6062 218.356 43.5161C217.669 43.426 217.025 43.1344 216.505 42.6782C215.984 42.2219 215.61 41.6216 215.431 40.953C215.252 40.2845 215.274 39.5777 215.497 38.9222C215.719 38.2666 216.131 37.6917 216.68 37.2701C217.229 36.8484 217.89 36.5991 218.581 36.5535C219.272 36.5079 219.96 36.6682 220.56 37.014C220.958 37.2437 221.307 37.5495 221.587 37.9141C221.867 38.2786 222.073 38.6948 222.192 39.1388C222.311 39.5827 222.341 40.0458 222.282 40.5016C222.222 40.9573 222.073 41.3968 221.843 41.795Z" fill="#E535AB"/>
<path d="M215.788 57.92C215.442 57.3204 215.282 56.6316 215.327 55.9409C215.373 55.2502 215.622 54.5885 216.044 54.0396C216.466 53.4906 217.041 53.0789 217.696 52.8567C218.352 52.6344 219.058 52.6116 219.727 52.791C220.396 52.9704 220.996 53.344 221.452 53.8646C221.908 54.3852 222.2 55.0294 222.29 55.7157C222.38 56.402 222.265 57.0997 221.958 57.7204C221.652 58.3411 221.169 58.8571 220.569 59.203C219.765 59.6653 218.81 59.7899 217.913 59.5494C217.017 59.3089 216.253 58.723 215.788 57.92Z" fill="#E535AB"/>
<path d="M244.462 41.795C244.116 41.1954 243.956 40.5066 244.001 39.8159C244.047 39.1252 244.296 38.4635 244.718 37.9146C245.14 37.3656 245.715 36.9539 246.37 36.7317C247.026 36.5094 247.732 36.4866 248.401 36.666C249.07 36.8454 249.67 37.219 250.126 37.7396C250.582 38.2602 250.874 38.9044 250.964 39.5907C251.054 40.277 250.939 40.9747 250.632 41.5954C250.326 42.2161 249.843 42.7321 249.243 43.078C248.439 43.5403 247.484 43.6649 246.587 43.4244C245.691 43.1839 244.927 42.598 244.462 41.795Z" fill="#E535AB"/>
<path d="M233.153 67.738C232.461 67.738 231.784 67.5328 231.209 67.1482C230.633 66.7636 230.184 66.217 229.919 65.5774C229.655 64.9379 229.585 64.2342 229.72 63.5552C229.855 62.8763 230.189 62.2527 230.678 61.7632C231.168 61.2737 231.791 60.9403 232.47 60.8053C233.149 60.6702 233.853 60.7396 234.492 61.0045C235.132 61.2694 235.679 61.718 236.063 62.2935C236.448 62.8691 236.653 63.5458 236.653 64.238C236.654 64.6978 236.564 65.1533 236.388 65.5782C236.212 66.0031 235.954 66.3892 235.629 66.7144C235.304 67.0395 234.918 67.2973 234.493 67.473C234.068 67.6486 233.613 67.7387 233.153 67.738Z" fill="#E535AB"/>
<path d="M233.153 35.481C232.461 35.481 231.784 35.2757 231.209 34.8911C230.633 34.5065 230.184 33.9599 229.919 33.3203C229.655 32.6808 229.585 31.9771 229.72 31.2981C229.855 30.6192 230.189 29.9956 230.678 29.5061C231.168 29.0166 231.791 28.6833 232.47 28.5482C233.149 28.4132 233.853 28.4825 234.492 28.7474C235.132 29.0123 235.679 29.4609 236.063 30.0365C236.448 30.612 236.653 31.2887 236.653 31.981C236.654 32.4408 236.564 32.8962 236.388 33.3211C236.212 33.7461 235.954 34.1322 235.629 34.4573C235.304 34.7824 234.918 35.0402 234.493 35.2159C234.068 35.3915 233.613 35.4816 233.153 35.481Z" fill="#E535AB"/>
<path d="M44.751 457.154C69.1068 457.154 88.851 437.41 88.851 413.054C88.851 388.698 69.1068 368.954 44.751 368.954C20.3952 368.954 0.651001 388.698 0.651001 413.054C0.651001 437.41 20.3952 457.154 44.751 457.154Z" fill="white"/>
<path d="M39.263 369.154C29.9044 370.386 21.1872 374.585 14.391 381.136C11.3052 384.029 8.66073 387.358 6.54199 391.019C2.07208 398.802 0.0702276 407.758 0.801262 416.703C1.5323 425.648 4.96177 434.16 10.636 441.114C17.1034 448.898 25.9883 454.295 35.877 456.447C41.0305 457.256 46.2692 457.37 51.453 456.786C57.5113 455.847 63.3079 453.657 68.4742 450.356C73.6406 447.056 78.0637 442.716 81.4624 437.614C84.8611 432.511 87.161 426.758 88.2159 420.718C89.2708 414.679 89.0577 408.486 87.59 402.534C85.7529 394.685 81.6905 387.532 75.89 381.934C69.8742 375.771 62.16 371.538 53.73 369.774C48.9502 368.986 44.0927 368.777 39.263 369.154ZM51.263 387.135C53.2088 387.662 55.025 388.585 56.5979 389.847C58.1709 391.108 59.4669 392.679 60.405 394.464C61.8292 397.398 62.1749 400.74 61.3813 403.903C60.5877 407.067 58.7055 409.85 56.065 411.764L54.803 412.657L56.034 414.012C58.096 416.198 58.62 417.737 58.65 421.34C58.65 424.019 58.558 424.603 57.911 425.804C57.038 427.663 55.6625 429.242 53.94 430.361C51.478 431.961 49.6 432.269 42.305 432.269C36.179 432.269 35.748 432.239 34.979 431.623C34.7325 431.456 34.5307 431.231 34.3912 430.968C34.2517 430.705 34.1788 430.412 34.1788 430.114C34.1788 429.817 34.2517 429.524 34.3912 429.261C34.5307 428.998 34.7325 428.773 34.979 428.606C35.749 427.99 36.179 427.96 42.767 427.96C50.678 427.96 51.447 427.775 53.202 425.62C54.3231 424.3 54.8886 422.596 54.7795 420.868C54.6704 419.139 53.8952 417.521 52.617 416.352C50.801 414.628 49.847 414.413 44.183 414.413C39.504 414.413 39.042 414.352 38.488 413.798C38.1313 413.452 37.9175 412.985 37.889 412.488C37.8605 411.992 38.0193 411.504 38.334 411.119C38.765 410.504 39.073 410.473 44.552 410.349C49.662 410.257 50.524 410.165 51.752 409.579C53.8676 408.672 55.5954 407.047 56.6315 404.991C57.6675 402.936 57.9453 400.58 57.416 398.34C57.0277 396.381 55.9859 394.612 54.461 393.322C51.845 390.952 51.383 390.858 41.748 390.766C32.575 390.643 31.775 390.766 31.128 392.121C30.882 392.675 30.789 398.802 30.789 413.304C30.789 433.625 30.789 433.717 31.435 434.549L32.081 435.38L41.839 435.288C51.073 435.196 51.658 435.165 53.259 434.518C56.9358 432.91 59.8249 429.909 61.293 426.174C62.3088 423 62.3088 419.588 61.293 416.414C60.185 413.643 60.123 412.442 60.985 411.827C62.555 410.749 63.725 411.488 64.864 414.259C66.4247 418.428 66.5653 422.996 65.264 427.253C64.2294 430.033 62.5656 432.535 60.4028 434.565C58.24 436.595 55.6368 438.097 52.797 438.953C51.166 439.445 49.78 439.507 41.254 439.507H31.554L30.169 438.737C29.2875 438.173 28.507 437.465 27.86 436.643L26.937 435.288L26.845 413.858C26.783 398.958 26.845 392.028 27.091 391.228C27.7126 389.503 28.9827 388.089 30.631 387.287C31.739 386.764 32.817 386.702 40.789 386.702C47.297 386.708 50.159 386.832 51.268 387.139L51.263 387.135ZM50.801 394.771C51.6455 395.18 52.3897 395.77 52.9809 396.499C53.5721 397.228 53.9957 398.078 54.2219 398.988C54.448 399.899 54.4711 400.848 54.2895 401.769C54.1079 402.69 53.726 403.559 53.171 404.316C51.663 406.286 49.971 407.025 47.045 407.025C44.367 407.025 43.413 406.502 43.413 405.025C43.413 403.639 44.398 403.025 46.613 403.025C48.244 403.025 48.737 402.902 49.383 402.316C50.645 401.208 50.707 400.13 49.629 399.022L48.706 398.099H41.906C35.257 398.099 35.134 398.099 34.672 397.421C34.3453 397.038 34.1762 396.545 34.1991 396.042C34.2219 395.539 34.4349 395.063 34.795 394.711C35.38 394.127 35.811 394.096 42.429 394.096C49.082 394.098 49.513 394.129 50.806 394.776L50.801 394.771Z" fill="#E87511"/>
<path d="M524.341 514.669C550.911 514.669 572.45 493.13 572.45 466.56C572.45 439.99 550.911 418.451 524.341 418.451C497.771 418.451 476.232 439.99 476.232 466.56C476.232 493.13 497.771 514.669 524.341 514.669Z" fill="white"/>
<path d="M523.999 514.337C550.509 514.337 571.999 493.07 571.999 466.837C571.999 440.603 550.509 419.337 523.999 419.337C497.489 419.337 475.999 440.603 475.999 466.837C475.999 493.07 497.489 514.337 523.999 514.337Z" stroke="#F2F4F7"/>
<path d="M538.451 480.593V464.454C538.451 461.08 537.06 459.393 534.277 459.392C531.494 459.391 530.1 461.079 530.094 464.454V480.593H521.872V464.454C521.872 461.08 520.502 459.393 517.763 459.392C514.975 459.392 513.584 461.079 513.589 464.454V480.593H505.365V463.501C505.365 459.98 506.587 457.313 509.032 455.501C511.185 453.886 514.095 453.079 517.763 453.078C521.48 453.078 524.219 454.032 525.98 455.94C527.497 454.033 530.261 453.079 534.272 453.078C537.939 453.078 540.848 453.886 542.999 455.501C545.444 457.309 546.667 459.976 546.668 463.501V480.593H538.451Z" fill="#F98012"/>
<path d="M521.326 451.767L529.487 445.803L529.387 445.439C514.66 447.244 507.964 448.523 495.28 455.876L495.398 456.21L496.405 456.221C496.217 458.65 496.201 461.09 496.357 463.521C494.95 467.593 496.322 470.361 497.61 473.37C497.922 470.026 497.658 466.653 496.831 463.398C496.679 461.009 496.697 458.613 496.886 456.227L505.294 456.308C505.272 457.954 505.356 459.6 505.544 461.236C513.057 463.876 520.614 461.227 524.625 454.718C523.595 453.66 522.492 452.674 521.326 451.767Z" fill="#333333"/>
<path d="M556.915 270.641C581.547 270.641 601.516 250.672 601.516 226.04C601.516 201.408 581.547 181.439 556.915 181.439C532.283 181.439 512.314 201.408 512.314 226.04C512.314 250.672 532.283 270.641 556.915 270.641Z" fill="#588CF7"/>
<path d="M556.916 271.144C581.826 271.144 602.019 250.951 602.019 226.041C602.019 201.131 581.826 180.938 556.916 180.938C532.006 180.938 511.813 201.131 511.813 226.041C511.813 250.951 532.006 271.144 556.916 271.144Z" stroke="#F2F4F7"/>
<path d="M556.916 268.645C580.442 268.645 599.513 249.574 599.513 226.048C599.513 202.522 580.442 183.451 556.916 183.451C533.39 183.451 514.319 202.522 514.319 226.048C514.319 249.574 533.39 268.645 556.916 268.645Z" fill="#588CF7" stroke="white" stroke-width="4"/>
<path fill-rule="evenodd" clip-rule="evenodd" d="M567.849 221.738C567.737 221.816 567.645 221.92 567.581 222.041C567.518 222.162 567.485 222.296 567.485 222.433V230.839C567.485 230.976 567.518 231.11 567.581 231.231C567.645 231.352 567.737 231.456 567.849 231.533L577.139 237.966C577.266 238.054 577.414 238.105 577.568 238.115C577.722 238.124 577.876 238.091 578.012 238.02C578.149 237.948 578.263 237.84 578.343 237.709C578.423 237.577 578.465 237.425 578.465 237.271V216.001C578.465 215.847 578.423 215.695 578.343 215.564C578.263 215.432 578.149 215.324 578.012 215.252C577.876 215.181 577.722 215.148 577.568 215.157C577.414 215.167 577.266 215.218 577.139 215.306L567.849 221.738ZM537.079 215.238C536.631 215.238 536.201 215.416 535.884 215.733C535.567 216.049 535.389 216.479 535.389 216.927V232.127C535.389 232.903 535.542 233.672 535.839 234.39C536.136 235.107 536.572 235.759 537.121 236.308C537.67 236.857 538.322 237.292 539.039 237.589C539.757 237.886 540.526 238.039 541.302 238.039H564.102C564.324 238.039 564.544 237.995 564.749 237.91C564.954 237.825 565.14 237.701 565.297 237.544C565.454 237.387 565.578 237.201 565.663 236.996C565.748 236.791 565.791 236.571 565.791 236.349V221.149C565.791 219.581 565.168 218.078 564.06 216.969C562.951 215.86 561.448 215.237 559.88 215.237L537.079 215.238Z" fill="white"/>
</svg>
